<svg width="140" height="140" viewBox="0 0 140 140" fill="none" xmlns="http://www.w3.org/2000/svg">
<circle cx="70.001" cy="74.6685" r="53.5088" fill="white"/>
<path fill-rule="evenodd" clip-rule="evenodd" d="M70 140C79.1925 140 88.295 138.189 96.7878 134.672C105.281 131.154 112.997 125.998 119.497 119.497C125.998 112.997 131.154 105.281 134.672 96.7878C138.189 88.295 140 79.1925 140 70C140 60.8075 138.189 51.7049 134.672 43.2122C131.154 34.7194 125.998 27.0026 119.497 20.5025C112.997 14.0024 105.281 8.84626 96.7878 5.32843C88.295 1.8106 79.1925 -1.36979e-07 70 0C51.4348 2.76642e-07 33.6301 7.37498 20.5025 20.5025C7.37498 33.6301 0 51.4348 0 70C0 88.5652 7.37498 106.37 20.5025 119.497C33.6301 132.625 51.4348 140 70 140ZM68.1956 98.3111L107.084 51.6444L95.1378 41.6889L61.6933 81.8144L44.3878 64.5011L33.39 75.4989L56.7233 98.8322L62.7433 104.852L68.1956 98.3111Z" fill="#C8D4EC"/>
</svg>
