<svg width="75" height="38" viewBox="0 0 75 38" fill="none" xmlns="http://www.w3.org/2000/svg">
<mask id="mask0_866_470" style="mask-type:alpha" maskUnits="userSpaceOnUse" x="0" y="0" width="75" height="38">
<path d="M58.2488 37.339H74.678C74.678 16.7172 57.9607 0 37.339 0C16.7172 0 0 16.7172 0 37.339H16.4292C16.4292 25.7908 25.7908 16.4292 37.339 16.4292C48.8872 16.4292 58.2488 25.7908 58.2488 37.339Z" fill="white"/>
</mask>
<g mask="url(#mask0_866_470)">
<rect x="7.75977" y="6.97949" width="50.6743" height="62.3125" transform="rotate(-45 7.75977 6.97949)" fill="url(#paint0_linear_866_470)"/>
<rect x="-40.9766" y="18.7676" width="50.6743" height="62.3125" transform="rotate(-40.3817 -40.9766 18.7676)" fill="url(#paint1_linear_866_470)"/>
<rect width="50.6743" height="62.3125" transform="matrix(-0.761746 -0.647876 -0.647876 0.761746 112.432 21.1924)" fill="url(#paint2_linear_866_470)"/>
</g>
<defs>
<linearGradient id="paint0_linear_866_470" x1="7.75977" y1="44.3076" x2="58.7896" y2="33.6693" gradientUnits="userSpaceOnUse">
<stop stop-color="#07CD5E"/>
<stop offset="1" stop-color="#34D88C"/>
</linearGradient>
<linearGradient id="paint1_linear_866_470" x1="-40.9766" y1="59.9553" x2="11.6004" y2="50.6978" gradientUnits="userSpaceOnUse">
<stop stop-color="#E1900C"/>
<stop offset="0.54" stop-color="#FACA0A"/>
</linearGradient>
<linearGradient id="paint2_linear_866_470" x1="-6.52933e-08" y1="41.1878" x2="52.5769" y2="31.9302" gradientUnits="userSpaceOnUse">
<stop offset="0.301348" stop-color="#FC9952"/>
<stop offset="0.836568" stop-color="#EE272A"/>
</linearGradient>
</defs>
</svg>
