<svg width="14" height="8" viewBox="0 0 14 8" fill="none" xmlns="http://www.w3.org/2000/svg">
<path fill-rule="evenodd" clip-rule="evenodd" d="M7.37629 7.70721C7.18876 7.89468 6.93445 8 6.66929 8C6.40412 8 6.14982 7.89468 5.96229 7.70721L0.305288 2.05021C0.209778 1.95797 0.133596 1.84762 0.0811866 1.72562C0.0287776 1.60361 0.00119129 1.47239 3.74652e-05 1.33961C-0.00111636 1.20684 0.0241856 1.07516 0.0744665 0.95226C0.124747 0.829364 0.199 0.717711 0.292893 0.623818C0.386786 0.529926 0.498437 0.455673 0.621334 0.405392C0.74423 0.355111 0.87591 0.329809 1.00869 0.330963C1.14147 0.332117 1.27269 0.359703 1.39469 0.412112C1.5167 0.464521 1.62704 0.540703 1.71929 0.636213L6.66929 5.58621L11.6193 0.636213C11.8079 0.454055 12.0605 0.35326 12.3227 0.355539C12.5849 0.357817 12.8357 0.462986 13.0211 0.648394C13.2065 0.833802 13.3117 1.08462 13.314 1.34681C13.3162 1.60901 13.2154 1.86161 13.0333 2.05021L7.37629 7.70721Z" fill="white"/>
</svg>
