<svg width="51" height="51" viewBox="0 0 51 51" fill="none" xmlns="http://www.w3.org/2000/svg">
<circle cx="25.025" cy="25.4996" r="25.025" fill="url(#paint0_linear_796_109)"/>
<path d="M25.8091 14.021C25.9689 14.0882 26.1053 14.2011 26.2013 14.3455C26.2973 14.4898 26.3487 14.6593 26.349 14.8327V34.243C26.3489 34.4168 26.2976 34.5866 26.2015 34.7313C26.1053 34.876 25.9686 34.9891 25.8085 35.0564C25.6483 35.1236 25.4719 35.1421 25.3013 35.1095C25.1307 35.0769 24.9735 34.9946 24.8494 34.873L19.6858 29.7998H16.6462C15.9444 29.7998 15.2713 29.521 14.7751 29.0246C14.2788 28.5282 14 27.8549 14 27.153V21.8769C14 21.1749 14.2788 20.5016 14.7751 20.0052C15.2713 19.5089 15.9444 19.23 16.6462 19.23H19.6876L24.8512 14.2009C24.9753 14.0798 25.1324 13.998 25.3028 13.9657C25.4732 13.9333 25.6493 13.9537 25.8091 14.021ZM24.5848 16.9219L20.6631 20.7458C20.498 20.9068 20.2764 20.9968 20.0457 20.9963H16.6462C16.4123 20.9963 16.1879 21.0893 16.0225 21.2548C15.8571 21.4202 15.7641 21.6446 15.7641 21.8786V27.153C15.7641 27.387 15.8571 27.6114 16.0225 27.7768C16.1879 27.9423 16.4123 28.0352 16.6462 28.0352H20.0475C20.2784 28.0353 20.5 28.1259 20.6649 28.2876L24.5848 32.1397V16.9219ZM28.3089 19.5759C28.381 19.4851 28.4703 19.4094 28.5717 19.3532C28.6731 19.2969 28.7846 19.2612 28.8998 19.2481C29.0149 19.235 29.1316 19.2448 29.243 19.2768C29.3544 19.3088 29.4584 19.3624 29.5491 19.4347L29.5526 19.4365L29.5562 19.44L29.565 19.447L29.5914 19.47L29.6726 19.5406C29.7373 19.5994 29.8208 19.6829 29.9231 19.7911C30.1224 20.0082 30.3818 20.324 30.6376 20.744C31.1509 21.591 31.6484 22.8491 31.6484 24.5343C31.6484 26.2177 31.1509 27.4776 30.6376 28.3246C30.4317 28.6658 30.1924 28.9856 29.9231 29.2793C29.8098 29.4001 29.6909 29.5155 29.5667 29.6251L29.5526 29.6375H29.5509C29.5509 29.6375 28.7623 30.0663 28.3107 29.4998C28.1655 29.3181 28.0979 29.0863 28.1227 28.855C28.1474 28.6237 28.2626 28.4115 28.443 28.2646L28.4465 28.2611L28.4783 28.2329C28.5112 28.2035 28.5612 28.1535 28.6282 28.0829C28.8171 27.8754 28.985 27.6496 29.1292 27.4088C29.4997 26.8 29.8843 25.8525 29.8843 24.5326C29.8843 23.2127 29.4997 22.2686 29.1292 21.6616C28.9476 21.3623 28.7295 21.0867 28.48 20.8411L28.4483 20.8128C28.2663 20.667 28.1494 20.4549 28.1233 20.2231C28.0972 19.9913 28.1639 19.7586 28.3089 19.5759ZM31.3115 15.9055C31.2212 15.8308 31.1169 15.7748 31.0047 15.7408C30.8925 15.7068 30.7747 15.6956 30.6581 15.7077C30.5415 15.7198 30.4285 15.755 30.3256 15.8113C30.2228 15.8676 30.1322 15.9438 30.0592 16.0355C29.9862 16.1272 29.9321 16.2325 29.9003 16.3454C29.8684 16.4582 29.8593 16.5762 29.8736 16.6926C29.8878 16.809 29.9252 16.9214 29.9833 17.0231C30.0415 17.1249 30.1194 17.2141 30.2124 17.2854L30.2318 17.3031L30.3236 17.3825C30.4082 17.4566 30.5264 17.5713 30.6782 17.7266C30.9781 18.0389 31.3838 18.5083 31.7896 19.1277C32.6011 20.3646 33.4126 22.1857 33.4126 24.5431C33.4194 26.467 32.8545 28.3495 31.7896 29.9516C31.3838 30.5692 30.9781 31.035 30.6782 31.3456C30.5362 31.4931 30.3878 31.6344 30.2336 31.7691L30.2142 31.7867H30.2124C30.0344 31.9341 29.9213 32.1455 29.8974 32.3754C29.8736 32.6053 29.9409 32.8354 30.0849 33.0162C30.2289 33.197 30.4381 33.314 30.6675 33.3422C30.8968 33.3703 31.1281 33.3073 31.3115 33.1666L31.3697 33.119L31.502 33.0043C31.6131 32.9037 31.7666 32.7608 31.9483 32.572C32.4376 32.0638 32.8782 31.5108 33.2644 30.9203C34.5176 29.0303 35.1824 26.8111 35.1749 24.5431C35.1796 22.2734 34.515 20.0527 33.2644 18.1589C32.8781 17.5679 32.4382 17.0138 31.9501 16.5037C31.7656 16.3122 31.5725 16.1291 31.3715 15.9549L31.3309 15.9214L31.3185 15.9108L31.315 15.9073L31.3115 15.9055Z" fill="white"/>
<defs>
<linearGradient id="paint0_linear_796_109" x1="25.025" y1="0.474609" x2="25.025" y2="50.5246" gradientUnits="userSpaceOnUse">
<stop stop-color="#2865D6"/>
<stop offset="1" stop-color="#153570"/>
</linearGradient>
</defs>
</svg>
