<svg width="16" height="10" viewBox="0 0 16 10" fill="none" xmlns="http://www.w3.org/2000/svg">
<path fill-rule="evenodd" clip-rule="evenodd" d="M2.87 4.73129L4.84 6.70129C4.91369 6.76995 4.97279 6.85275 5.01378 6.94475C5.05477 7.03675 5.07681 7.13607 5.07859 7.23677C5.08037 7.33747 5.06184 7.4375 5.02412 7.53089C4.9864 7.62428 4.93026 7.70911 4.85904 7.78033C4.78782 7.85155 4.70299 7.90769 4.6096 7.94541C4.51621 7.98314 4.41618 8.00166 4.31548 7.99988C4.21477 7.99811 4.11546 7.97606 4.02346 7.93507C3.93146 7.89408 3.84866 7.83498 3.78 7.76129L0.53 4.51129L0 3.98129L0.53 3.45129L3.78 0.201292C3.92217 0.0688118 4.11022 -0.00331137 4.30452 0.000116847C4.49882 0.00354506 4.68421 0.0822571 4.82162 0.21967C4.95903 0.357083 5.03775 0.542468 5.04117 0.736769C5.0446 0.93107 4.97248 1.11912 4.84 1.26129L2.87 3.23129H12.75C13.612 3.23129 14.4386 3.5737 15.0481 4.18319C15.6576 4.79269 16 5.61934 16 6.48129C16 7.34325 15.6576 8.1699 15.0481 8.77939C14.4386 9.38888 13.612 9.73129 12.75 9.73129H10.75C10.5511 9.73129 10.3603 9.65227 10.2197 9.51162C10.079 9.37097 10 9.1802 10 8.98129C10 8.78238 10.079 8.59161 10.2197 8.45096C10.3603 8.31031 10.5511 8.23129 10.75 8.23129H12.75C13.2141 8.23129 13.6592 8.04692 13.9874 7.71873C14.3156 7.39054 14.5 6.94542 14.5 6.48129C14.5 6.01716 14.3156 5.57204 13.9874 5.24385C13.6592 4.91567 13.2141 4.73129 12.75 4.73129H2.87Z" fill="white"/>
</svg>
