<svg width="48" height="61" viewBox="0 0 48 61" fill="none" xmlns="http://www.w3.org/2000/svg">
<path d="M8.7773 50.5776H25.7236V47.6246H8.7773V50.5776ZM8.7773 43.6583H39.2227V40.7053H8.7773V43.6583ZM8.7773 36.739H39.2227V33.786H8.7773V36.739ZM13.4991 15.981V20.6711H8.7773V23.6241H13.4991V28.3142H16.4538V23.6531H21.1756V20.7H16.4538V15.981H13.4991ZM39.5703 3.64784V6.60085H45.0453V58.047H2.95479V6.60085H8.4297V3.64784H0V61H48V3.64784H39.5703ZM14.2812 2.95301H33.6898V7.29568H14.2812V2.95301ZM11.3265 10.2487H36.6445V0H11.3265V10.2487Z" fill="white"/>
</svg>
