<svg width="14" height="9" viewBox="0 0 14 9" fill="none" xmlns="http://www.w3.org/2000/svg">
<path d="M9 3.33333L12.0353 2.00567C12.1369 1.96124 12.2499 1.94026 12.3633 1.94474C12.4768 1.94921 12.5871 1.97898 12.6837 2.03122C12.7804 2.08346 12.8602 2.15644 12.9155 2.24324C12.9709 2.33004 12.9999 2.42777 13 2.52717V6.47283C12.9999 6.57223 12.9709 6.66996 12.9155 6.75676C12.8602 6.84356 12.7804 6.91654 12.6837 6.96878C12.5871 7.02102 12.4768 7.05079 12.3633 7.05526C12.2499 7.05974 12.1369 7.03876 12.0353 6.99433L9 5.66667V3.33333ZM1 2.16667C1 1.85725 1.14048 1.5605 1.39052 1.34171C1.64057 1.12292 1.97971 1 2.33333 1H7.66667C8.02029 1 8.35943 1.12292 8.60948 1.34171C8.85952 1.5605 9 1.85725 9 2.16667V6.83333C9 7.14275 8.85952 7.4395 8.60948 7.65829C8.35943 7.87708 8.02029 8 7.66667 8H2.33333C1.97971 8 1.64057 7.87708 1.39052 7.65829C1.14048 7.4395 1 7.14275 1 6.83333V2.16667Z" stroke="white" stroke-linecap="round" stroke-linejoin="round"/>
</svg>
