<svg width="24" height="24" viewBox="0 0 24 24" fill="none" xmlns="http://www.w3.org/2000/svg">
<path d="M12.5815 4.60215L18.6694 10.7261H2.8695C2.59881 10.7261 2.3394 10.8343 2.14828 11.0266C1.95719 11.2189 1.85 11.4795 1.85 11.751C1.85 12.0225 1.95719 12.2831 2.14828 12.4754C2.3394 12.6677 2.59881 12.7759 2.8695 12.7759H18.6694L12.5815 18.8998L12.5815 18.8998C12.3902 19.0923 12.2829 19.3532 12.2829 19.625C12.2829 19.8968 12.3902 20.1577 12.5815 20.3501C12.7728 20.5427 13.0325 20.651 13.3035 20.651C13.5744 20.651 13.8341 20.5427 14.0255 20.3501L21.8508 12.4763C21.9457 12.381 22.021 12.2679 22.0723 12.1435C22.1236 12.019 22.15 11.8857 22.15 11.751C22.15 11.6163 22.1236 11.4829 22.0723 11.3585C22.021 11.234 21.9457 11.1209 21.8508 11.0257L14.0255 3.15181C13.8341 2.9593 13.5744 2.85098 13.3035 2.85098C13.0325 2.85098 12.7728 2.9593 12.5815 3.15181C12.3902 3.34429 12.2829 3.60516 12.2829 3.87697C12.2829 4.14878 12.3902 4.40965 12.5815 4.60213L12.5815 4.60215Z" fill="white" stroke="white" stroke-width="0.3"/>
</svg>
