<svg width="58" height="63" viewBox="0 0 58 63" fill="none" xmlns="http://www.w3.org/2000/svg">
<path d="M8.31698 3.05638H14.4453V0H5.28019V9.19668H8.31698V3.05638ZM5.28019 35.1071H14.4179V32.0507H8.31698V25.9104H5.28019V35.1071ZM35.8396 5.83741C33.7877 10.9314 26.6472 15.7225 18.0292 15.7775C18.1934 13.4921 18.9321 8.94886 22.0509 6.66346C24.4038 4.92876 27.0302 4.29545 29.4925 4.29545C31.9274 4.29545 34.2255 4.92876 35.8396 5.83741ZM39.3689 4.65341L39.3962 4.5708L38.5481 3.96504C38.5481 3.96504 38.5208 3.96503 38.5208 3.9375C38.5208 3.9375 38.5208 3.9375 38.4934 3.9375C34.116 0.770979 26.2642 -0.192745 20.2453 4.21285C14.6642 8.28802 14.9651 16.9891 14.9651 17.347L15.0198 18.7238L16.3877 18.8064C16.9075 18.8339 17.4 18.8339 17.8925 18.8339C27.6321 18.8339 35.4019 13.5472 38.2472 7.76486C40.5453 10.4082 40.5453 14.1805 40.3811 16.6036C38.4113 16.3282 36.7151 15.5022 35.7575 14.2906L33.3774 16.1906C35.1557 18.4209 38.2745 19.7426 41.7764 19.7426H43.1717L43.3358 17.7601C43.5821 14.9515 44.0745 8.61844 39.3689 4.65341ZM39.9981 21.5874V23.1018C39.9981 29.2146 35.0736 34.1709 29 34.1709C22.9264 34.1709 18.0019 29.2146 18.0019 23.1018V20.6237H14.9651V23.1018C14.9651 30.8942 21.2575 37.2273 29 37.2273C36.7425 37.2273 43.0349 30.8942 43.0349 23.1018V21.5874H39.9981ZM49.683 9.19668H52.7198V0H43.5821V3.05638H49.7104V9.19668H49.683ZM43.5547 35.1071H52.6925V25.9104H49.6557V32.0782H43.5274V35.1071H43.5547ZM58 60.4668V51.2976C58 47.0297 55.483 43.1748 51.5981 41.4952L39.4509 36.1259L38.2198 38.9069L50.367 44.2762C53.1575 45.4878 54.9358 48.2413 54.9358 51.2976V57.9336C51.5708 58.4843 41.5849 59.9712 28.9726 59.9712C16.3604 59.9712 6.37453 58.5118 3.00943 57.9336V51.2976C3.00943 48.2413 4.81509 45.4878 7.60566 44.2762L19.7255 38.8243L18.4943 36.0433L6.37453 41.4677C2.51698 43.1748 0 47.0297 0 51.2976V60.4668L1.23113 60.7146C1.34057 60.7421 13.1594 63 29 63C44.8406 63 56.6594 60.7146 56.7689 60.7146L58 60.4668Z" fill="white"/>
</svg>
