<svg width="12" height="9" viewBox="0 0 12 9" fill="none" xmlns="http://www.w3.org/2000/svg">
<path fill-rule="evenodd" clip-rule="evenodd" d="M11.6727 0.260096C12.0814 0.631621 12.1114 1.26407 11.7399 1.67271L5.52401 8.50961C5.52398 8.50965 5.52395 8.50968 5.52392 8.50971C5.41146 8.63341 5.2744 8.73224 5.12152 8.79988C4.96859 8.86754 4.80321 8.90248 4.63601 8.90248C4.4688 8.90248 4.30342 8.86754 4.15049 8.79988C3.99759 8.73223 3.86052 8.63338 3.74805 8.50966C3.74804 8.50964 3.74802 8.50963 3.74801 8.50961L0.26005 4.67266C-0.111447 4.26399 -0.0813138 3.63155 0.327353 3.26005C0.736021 2.88855 1.36847 2.91869 1.73996 3.32735L4.63605 6.51321L10.2601 0.327302C10.6316 -0.0813395 11.2641 -0.111428 11.6727 0.260096Z" fill="#2865D6"/>
</svg>
