<svg width="13" height="13" viewBox="0 0 13 13" fill="none" xmlns="http://www.w3.org/2000/svg">
<path d="M7.25 0.0434464C7.34808 0.0847476 7.43182 0.15404 7.49077 0.242668C7.54971 0.331297 7.58124 0.435332 7.58142 0.541778V12.4584C7.5814 12.5651 7.5499 12.6694 7.49087 12.7582C7.43184 12.847 7.3479 12.9164 7.24958 12.9577C7.15127 12.999 7.04295 13.0104 6.93821 12.9904C6.83347 12.9703 6.73697 12.9198 6.66081 12.8452L3.4907 9.73059H1.62459C1.19372 9.73059 0.780501 9.55938 0.475831 9.25464C0.171162 8.94989 0 8.53657 0 8.10559V4.86643C0 4.43546 0.171162 4.02213 0.475831 3.71739C0.780501 3.41264 1.19372 3.24144 1.62459 3.24144H3.49178L6.6619 0.153946C6.7381 0.0795818 6.83453 0.0293359 6.93913 0.00948977C7.04373 -0.0103563 7.15186 0.00216124 7.25 0.0434464ZM6.49836 1.82444L4.09071 4.17202C3.98933 4.2709 3.85325 4.32612 3.71164 4.32585H1.62459C1.48097 4.32585 1.34323 4.38292 1.24167 4.4845C1.14011 4.58608 1.08306 4.72386 1.08306 4.86752V8.10559C1.08306 8.24925 1.14011 8.38702 1.24167 8.48861C1.34323 8.59019 1.48097 8.64726 1.62459 8.64726H3.71273C3.85449 8.64728 3.99058 8.7029 4.0918 8.80217L6.49836 11.1671V1.82444ZM8.78469 3.45377C8.82897 3.39804 8.8838 3.35158 8.94604 3.31706C9.00828 3.28253 9.07672 3.26062 9.14743 3.25257C9.21814 3.24452 9.28975 3.2505 9.35815 3.27015C9.42656 3.2898 9.49042 3.32275 9.54609 3.3671L9.54825 3.36819L9.55042 3.37035L9.55583 3.37469L9.57208 3.38877L9.6219 3.4321C9.66161 3.46821 9.71288 3.51949 9.77569 3.58594C9.89808 3.71919 10.0573 3.9131 10.2143 4.17093C10.5295 4.69093 10.8349 5.46335 10.8349 6.49793C10.8349 7.53143 10.5295 8.30492 10.2143 8.82492C10.0879 9.03437 9.941 9.2307 9.77569 9.411C9.70613 9.48517 9.63312 9.55602 9.55692 9.62334L9.54825 9.63092H9.54717C9.54717 9.63092 9.06304 9.89417 8.78578 9.54642C8.69662 9.43484 8.65513 9.29256 8.67035 9.15053C8.68556 9.00851 8.75624 8.87824 8.86701 8.78809L8.86917 8.78592L8.88867 8.76859C8.90889 8.75053 8.93957 8.71984 8.98073 8.67651C9.09671 8.5491 9.19975 8.41047 9.28832 8.26267C9.51576 7.88892 9.75187 7.30718 9.75187 6.49685C9.75187 5.68651 9.51576 5.10693 9.28832 4.73427C9.17679 4.55052 9.04291 4.38131 8.88975 4.23052L8.87026 4.21318C8.75852 4.12363 8.68679 3.99346 8.67076 3.85114C8.65472 3.70883 8.69569 3.56595 8.78469 3.45377ZM10.6281 1.20044C10.5726 1.15455 10.5086 1.12017 10.4397 1.09931C10.3708 1.07845 10.2985 1.07154 10.2269 1.07896C10.1553 1.08639 10.086 1.10802 10.0228 1.14257C9.9597 1.17713 9.90409 1.22392 9.85925 1.28022C9.81441 1.33652 9.78123 1.4012 9.76167 1.47047C9.7421 1.53974 9.73654 1.61221 9.74529 1.68366C9.75405 1.75511 9.77696 1.82409 9.81268 1.88658C9.84839 1.94907 9.8962 2.00381 9.95331 2.04761L9.96523 2.05844L10.0215 2.10719C10.0735 2.15269 10.1461 2.22311 10.2392 2.31844C10.4234 2.51019 10.6725 2.79836 10.9216 3.1786C11.4198 3.93802 11.918 5.05602 11.918 6.50335C11.9222 7.68447 11.5754 8.8402 10.9216 9.82375C10.6725 10.2029 10.4234 10.4889 10.2392 10.6796C10.1521 10.7702 10.061 10.8569 9.96631 10.9396L9.9544 10.9504H9.95331C9.84402 11.0409 9.77458 11.1707 9.75994 11.3118C9.7453 11.453 9.78662 11.5942 9.87503 11.7052C9.96343 11.8162 10.0919 11.8881 10.2327 11.9053C10.3735 11.9226 10.5155 11.8839 10.6281 11.7976L10.6638 11.7683L10.745 11.6979C10.8133 11.6362 10.9075 11.5484 11.019 11.4325C11.3194 11.1205 11.5899 10.781 11.827 10.4185C12.5964 9.25814 13.0046 7.89569 13 6.50335C13.0028 5.1099 12.5948 3.74655 11.827 2.58386C11.5899 2.22101 11.3198 1.88085 11.0201 1.56769C10.9069 1.45009 10.7883 1.33767 10.6649 1.23078L10.64 1.21019L10.6324 1.20369L10.6302 1.20153L10.6281 1.20044Z" fill="white"/>
</svg>
