<svg width="16" height="16" viewBox="0 0 16 16" fill="none" xmlns="http://www.w3.org/2000/svg">
<path d="M12.6903 7.25008L8.40852 2.67925L8.40852 2.67924C8.27626 2.53802 8.20301 2.34781 8.20301 2.15074C8.20301 1.95367 8.27626 1.76346 8.40852 1.62224C8.54097 1.4808 8.72208 1.4 8.91243 1.4C9.10277 1.4 9.28388 1.4808 9.41634 1.62224L14.8941 7.47141L12.6903 7.25008ZM12.6903 7.25008H1.60865C1.41851 7.25008 1.23759 7.3308 1.10528 7.47208C0.973172 7.61315 0.9 7.80315 0.9 8C0.9 8.19685 0.973172 8.38685 1.10528 8.52792C1.23759 8.6692 1.41851 8.74992 1.60865 8.74992H12.6903L8.40852 13.3208L8.40852 13.3208C8.27626 13.462 8.20301 13.6522 8.20301 13.8493C8.20301 14.0463 8.27626 14.2365 8.40852 14.3778C8.54097 14.5192 8.72208 14.6 8.91243 14.6C9.10277 14.6 9.28388 14.5192 9.41634 14.3778L14.8941 8.52859L12.6903 7.25008ZM15.0467 8.28531C15.0115 8.3759 14.9598 8.45859 14.8942 8.5285L15.0467 8.28531ZM15.0467 8.28531C15.0819 8.1947 15.1 8.09776 15.1 8M15.0467 8.28531L15.1 8M15.1 8C15.1 7.90224 15.0819 7.8053 15.0467 7.71469M15.1 8L15.0467 7.71469M15.0467 7.71469C15.0115 7.62411 14.9598 7.54141 14.8942 7.4715L15.0467 7.71469Z" fill="#1A1A1A" stroke="#1A1A1A" stroke-width="0.2"/>
</svg>
