<svg width="20" height="20" viewBox="0 0 20 20" fill="none" xmlns="http://www.w3.org/2000/svg">
<g clip-path="url(#clip0_495_652)">
<path fill-rule="evenodd" clip-rule="evenodd" d="M13.0001 3C13.5047 2.99984 13.9908 3.19043 14.3608 3.53356C14.7308 3.87668 14.9575 4.34699 14.9953 4.85021L15.0003 5.00022V19.0018H16.0004V9.50072C16.0004 9.38368 16.0414 9.27034 16.1163 9.18043C16.1913 9.09051 16.2954 9.02973 16.4105 9.00867L16.5005 9.00067H18.0007C18.5053 9.00051 18.9913 9.19109 19.3614 9.53422C19.7314 9.87735 19.958 10.3477 19.9959 10.8509L20.0009 11.0009V19.0018H21.001C21.2559 19.0021 21.5011 19.0997 21.6864 19.2747C21.8718 19.4496 21.9833 19.6888 21.9983 19.9433C22.0132 20.1977 21.9304 20.4483 21.7668 20.6438C21.6032 20.8393 21.3711 20.9649 21.118 20.995L21.001 21.002H2.999C2.74409 21.0017 2.49892 20.9041 2.31356 20.7291C2.1282 20.5541 2.01666 20.315 2.00172 20.0605C1.98678 19.806 2.06957 19.5555 2.23318 19.36C2.39679 19.1645 2.62887 19.0389 2.88199 19.0088L2.999 19.0018H3.99911V5.00022C3.99895 4.49559 4.18954 4.00955 4.53267 3.63952C4.8758 3.2695 5.34611 3.04285 5.84932 3.005L5.99934 3H13.0001ZM10.9999 15.0013H7.99956V17.0016H10.9999V15.0013ZM10.9999 11.0009H7.99956V13.0011H10.9999V11.0009ZM10.9999 7.00044H7.99956V9.00067H10.9999V7.00044Z" fill="white"/>
</g>
<defs>
<clipPath id="clip0_495_652">
<rect width="20" height="20" fill="white"/>
</clipPath>
</defs>
</svg>
