<svg width="4" height="16" viewBox="0 0 4 16" fill="none" xmlns="http://www.w3.org/2000/svg">
<path d="M1.72807 0.835926C2.16741 0.825819 2.68816 7.66056 3.50233 13.9043C3.53128 14.1268 3.51407 14.3527 3.45178 14.5678C3.38948 14.7829 3.28343 14.9827 3.14025 15.1546C2.99707 15.3266 2.81984 15.467 2.61963 15.5672C2.41941 15.6673 2.2005 15.725 1.97658 15.7367C1.75266 15.7484 1.52853 15.7138 1.31819 15.635C1.10785 15.5563 0.915819 15.4351 0.754082 15.279C0.592345 15.1229 0.464379 14.9354 0.378175 14.728C0.291971 14.5206 0.24938 14.2979 0.253062 14.0737C0.726186 7.73746 1.26386 0.846605 1.72807 0.835926Z" fill="#8E8E8E"/>
</svg>
