<svg width="52" height="52" viewBox="0 0 52 52" fill="none" xmlns="http://www.w3.org/2000/svg">
<mask id="mask0_237_1892" style="mask-type:alpha" maskUnits="userSpaceOnUse" x="0" y="0" width="52" height="52">
<rect width="52" height="52" fill="#D9D9D9"/>
</mask>
<g mask="url(#mask0_237_1892)">
<path d="M26.2173 45.5001C25.6034 45.5001 25.0888 45.2925 24.6735 44.8772C24.2582 44.462 24.0506 43.9474 24.0506 43.3335C24.0506 43.0807 24.1048 42.8189 24.2131 42.5481C24.3214 42.2772 24.4839 42.0335 24.7006 41.8168L33.9631 32.5543C34.1798 32.3376 34.2881 32.0758 34.2881 31.7689C34.2881 31.462 34.1798 31.2001 33.9631 30.9835C33.7464 30.7668 33.4846 30.6675 33.1777 30.6856C32.8707 30.7036 32.6089 30.821 32.3923 31.0376L23.1839 40.246C22.9673 40.4627 22.7325 40.6251 22.4798 40.7335C22.227 40.8418 21.9561 40.896 21.6673 40.896C21.0534 40.896 20.5388 40.6883 20.1235 40.2731C19.7082 39.8578 19.5006 39.3432 19.5006 38.7293C19.5006 38.3682 19.5548 38.0703 19.6631 37.8356C19.7714 37.6008 19.9159 37.3932 20.0964 37.2126L29.3589 27.9501C29.5756 27.7335 29.6839 27.4807 29.6839 27.1918C29.6839 26.9029 29.5756 26.6501 29.3589 26.4335C29.1423 26.2168 28.8895 26.1085 28.6006 26.1085C28.3117 26.1085 28.0589 26.2168 27.8423 26.4335L18.5798 35.6418C18.3631 35.8585 18.1284 36.021 17.8756 36.1293C17.6228 36.2376 17.3339 36.2918 17.0089 36.2918C16.4311 36.2918 15.9256 36.0751 15.4923 35.6418C15.0589 35.2085 14.8423 34.7029 14.8423 34.1251C14.8423 33.8363 14.8964 33.5654 15.0048 33.3126C15.1131 33.0599 15.2756 32.8251 15.4923 32.6085L24.7006 23.4001C24.9173 23.1835 25.0256 22.9217 25.0256 22.6147C25.0256 22.3078 24.9173 22.046 24.7006 21.8293C24.4839 21.6126 24.2311 21.5043 23.9423 21.5043C23.6534 21.5043 23.4006 21.6126 23.1839 21.8293L13.9756 31.0918C13.795 31.2724 13.5784 31.4168 13.3256 31.5251C13.0728 31.6335 12.7659 31.6876 12.4048 31.6876C11.7909 31.6876 11.2763 31.48 10.861 31.0647C10.4457 30.6495 10.2381 30.1349 10.2381 29.521C10.2381 29.2321 10.2923 28.9613 10.4006 28.7085C10.5089 28.4557 10.6714 28.221 10.8881 28.0043L21.5048 17.3876C21.902 16.9904 22.3985 16.8099 22.9943 16.846C23.5902 16.8821 24.0867 17.0988 24.4839 17.496L31.0923 24.1043C31.4895 24.5015 31.9589 24.8175 32.5006 25.0522C33.0423 25.287 33.5839 25.4043 34.1256 25.4043C35.2811 25.4043 36.2923 24.9981 37.1589 24.1856C38.0256 23.3731 38.4589 22.3349 38.4589 21.071C38.4589 20.5654 38.3686 20.0418 38.1881 19.5001C38.0075 18.9585 37.6825 18.4529 37.2131 17.9835L29.7923 10.5626C29.395 10.1654 29.1332 9.73209 29.0068 9.26265C28.8804 8.7932 28.9436 8.34181 29.1964 7.90848C29.5214 7.36681 29.9367 6.96959 30.4423 6.71681C30.9478 6.46404 31.5075 6.33765 32.1214 6.33765C32.8798 6.33765 33.6561 6.5182 34.4506 6.87931C35.245 7.24042 35.9673 7.74598 36.6173 8.39598L45.7714 17.6043C46.4214 18.2543 46.8999 18.9765 47.2068 19.771C47.5138 20.5654 47.6673 21.4863 47.6673 22.5335C47.6673 23.2557 47.5048 23.987 47.1798 24.7272C46.8548 25.4675 46.3853 26.1446 45.7714 26.7585L27.7339 44.8501C27.445 45.139 27.1923 45.3196 26.9756 45.3918C26.7589 45.464 26.5061 45.5001 26.2173 45.5001ZM6.28392 26.271C5.59781 25.7654 5.08322 25.1606 4.74017 24.4564C4.39711 23.7522 4.22559 23.0029 4.22559 22.2085C4.22559 21.3779 4.39711 20.5654 4.74017 19.771C5.08322 18.9765 5.57975 18.2543 6.22975 17.6043L15.3839 8.39598C15.9978 7.78209 16.6749 7.31265 17.4152 6.98765C18.1554 6.66265 18.9409 6.50015 19.7714 6.50015C20.6742 6.50015 21.5499 6.66265 22.3985 6.98765C23.2471 7.31265 23.9784 7.78209 24.5923 8.39598L35.6964 19.5001C35.877 19.6807 36.0305 19.9064 36.1568 20.1772C36.2832 20.4481 36.3464 20.7279 36.3464 21.0168C36.3464 21.6307 36.1388 22.1453 35.7235 22.5606C35.3082 22.9758 34.7936 23.1835 34.1798 23.1835C33.8909 23.1835 33.611 23.1203 33.3402 22.9939C33.0693 22.8675 32.8436 22.714 32.6631 22.5335L26.0006 15.9251C25.17 15.0946 24.1499 14.6793 22.9402 14.6793C21.7304 14.6793 20.7103 15.0946 19.8798 15.9251L9.69642 26.1085C9.22698 26.5779 8.67628 26.8217 8.04434 26.8397C7.41239 26.8578 6.82559 26.6682 6.28392 26.271Z" fill="url(#paint0_linear_237_1892)"/>
</g>
<defs>
<linearGradient id="paint0_linear_237_1892" x1="25.9464" y1="6.33765" x2="25.9464" y2="45.5001" gradientUnits="userSpaceOnUse">
<stop stop-color="#4DCD28"/>
<stop offset="1" stop-color="#337B46"/>
</linearGradient>
</defs>
</svg>
