<svg width="120" height="108" viewBox="0 0 120 108" fill="none" xmlns="http://www.w3.org/2000/svg">
<path d="M79 35.304L107.836 22.0274C108.801 21.5831 109.874 21.3733 110.952 21.4181C112.03 21.4628 113.077 21.7605 113.996 22.2829C114.914 22.8053 115.671 23.5351 116.197 24.4031C116.723 25.2711 116.999 26.2484 117 27.2424V66.699C116.999 67.693 116.723 68.6703 116.197 69.5383C115.671 70.4063 114.914 71.1361 113.996 71.6585C113.077 72.1809 112.03 72.4786 110.952 72.5233C109.874 72.5681 108.801 72.3583 107.836 71.914L79 58.6374V35.304ZM3 23.6374C3 20.5432 4.33452 17.5757 6.70998 15.3878C9.08544 13.1999 12.3073 11.9707 15.6667 11.9707H66.3333C69.6927 11.9707 72.9146 13.1999 75.29 15.3878C77.6655 17.5757 79 20.5432 79 23.6374V70.304C79 73.3982 77.6655 76.3657 75.29 78.5536C72.9146 80.7415 69.6927 81.9707 66.3333 81.9707H15.6667C12.3073 81.9707 9.08544 80.7415 6.70998 78.5536C4.33452 76.3657 3 73.3982 3 70.304V23.6374Z" stroke="#A4A4A4" stroke-width="5" stroke-linecap="round" stroke-linejoin="round"/>
<path d="M110.971 3L9.02839 104.942" stroke="#A4A4A4" stroke-width="5" stroke-linecap="round"/>
</svg>
