<svg width="16" height="12" viewBox="0 0 16 12" fill="none" xmlns="http://www.w3.org/2000/svg">
<path d="M16 10.2857V12H5.89474V10.2857C5.89474 10.2857 5.89474 6.85714 10.9474 6.85714C16 6.85714 16 10.2857 16 10.2857ZM13.4737 2.57143C13.4737 2.06285 13.3255 1.56569 13.0479 1.14282C12.7703 0.719951 12.3758 0.390365 11.9141 0.195739C11.4525 0.00111416 10.9446 -0.0498087 10.4545 0.0494104C9.96445 0.14863 9.5143 0.393534 9.16099 0.753155C8.80768 1.11278 8.56707 1.57096 8.46959 2.06977C8.37212 2.56858 8.42215 3.08561 8.61336 3.55547C8.80457 4.02534 9.12837 4.42694 9.54382 4.70949C9.95927 4.99205 10.4477 5.14286 10.9474 5.14286C11.6174 5.14286 12.26 4.87194 12.7337 4.3897C13.2075 3.90747 13.4737 3.25341 13.4737 2.57143ZM6.73684 4.28571H4.21053V1.71429H2.52632V4.28571H0V6H2.52632V8.57143H4.21053V6H6.73684V4.28571Z" fill="white"/>
</svg>
