<svg width="70" height="61" viewBox="0 0 70 61" fill="none" xmlns="http://www.w3.org/2000/svg">
<path d="M20.4972 42.1557L18.5083 44.1453L34.8067 60.4494L51.105 44.1453L49.116 42.1557L34.8343 56.4425L20.4972 42.1557ZM24.3094 35.7999H5.66299V38.6185H26.0497L28.8674 33.0641L36.2155 47.572L42.5967 35.4683L44.8343 38.6462H64.3923V35.8275H46.2984L42.2652 30.0796L36.2983 41.4372L28.8951 26.8464L24.3094 35.7999ZM3.23204 35.7999H0V38.6185H3.23204V35.7999ZM64.0332 31.185C71.1603 24.0554 71.1603 12.4768 64.0332 5.34718C56.9061 -1.78239 45.3315 -1.78239 38.2044 5.34718L34.779 8.7738L31.3536 5.34718C24.2265 -1.78239 12.6519 -1.78239 5.52486 5.34718C2.07182 8.80143 0.165739 13.3887 0.165739 18.2523C0.165739 23.1159 2.07182 27.7031 5.52486 31.1574L6.60221 32.2351L8.59116 30.2454L7.51382 29.1677C4.58564 26.2385 2.98343 22.3697 2.98343 18.2523C2.98343 14.1348 4.58564 10.2384 7.51382 7.33683C13.5359 1.31262 23.3426 1.31262 29.337 7.33683L34.7514 12.7531L40.1658 7.33683C46.1879 1.31262 55.9945 1.31262 61.989 7.33683C68.0111 13.361 68.0111 23.1435 61.989 29.1677L61.0498 30.1073L63.0387 32.0969L64.0332 31.185ZM70 35.7999H66.768V38.6185H70V35.7999Z" fill="white"/>
</svg>
