<svg width="52" height="52" viewBox="0 0 52 52" fill="none" xmlns="http://www.w3.org/2000/svg">
<mask id="mask0_237_1897" style="mask-type:alpha" maskUnits="userSpaceOnUse" x="0" y="0" width="52" height="52">
<rect width="52" height="52" fill="#D9D9D9"/>
</mask>
<g mask="url(#mask0_237_1897)">
<path d="M10.8335 34.6666V23.8333C10.8335 23.2194 11.0411 22.7048 11.4564 22.2895C11.8717 21.8742 12.3863 21.6666 13.0002 21.6666C13.6141 21.6666 14.1286 21.8742 14.5439 22.2895C14.9592 22.7048 15.1668 23.2194 15.1668 23.8333V34.6666C15.1668 35.2805 14.9592 35.7951 14.5439 36.2103C14.1286 36.6256 13.6141 36.8333 13.0002 36.8333C12.3863 36.8333 11.8717 36.6256 11.4564 36.2103C11.0411 35.7951 10.8335 35.2805 10.8335 34.6666ZM23.8335 34.6666V23.8333C23.8335 23.2194 24.0411 22.7048 24.4564 22.2895C24.8717 21.8742 25.3863 21.6666 26.0002 21.6666C26.614 21.6666 27.1286 21.8742 27.5439 22.2895C27.9592 22.7048 28.1668 23.2194 28.1668 23.8333V34.6666C28.1668 35.2805 27.9592 35.7951 27.5439 36.2103C27.1286 36.6256 26.614 36.8333 26.0002 36.8333C25.3863 36.8333 24.8717 36.6256 24.4564 36.2103C24.0411 35.7951 23.8335 35.2805 23.8335 34.6666ZM6.50016 45.4999C5.88627 45.4999 5.37169 45.2923 4.95641 44.877C4.54113 44.4617 4.3335 43.9471 4.3335 43.3333C4.3335 42.7194 4.54113 42.2048 4.95641 41.7895C5.37169 41.3742 5.88627 41.1666 6.50016 41.1666H45.5002C46.114 41.1666 46.6286 41.3742 47.0439 41.7895C47.4592 42.2048 47.6668 42.7194 47.6668 43.3333C47.6668 43.9471 47.4592 44.4617 47.0439 44.877C46.6286 45.2923 46.114 45.4999 45.5002 45.4999H6.50016ZM36.8335 34.6666V23.8333C36.8335 23.2194 37.0411 22.7048 37.4564 22.2895C37.8717 21.8742 38.3863 21.6666 39.0002 21.6666C39.614 21.6666 40.1286 21.8742 40.5439 22.2895C40.9592 22.7048 41.1668 23.2194 41.1668 23.8333V34.6666C41.1668 35.2805 40.9592 35.7951 40.5439 36.2103C40.1286 36.6256 39.614 36.8333 39.0002 36.8333C38.3863 36.8333 37.8717 36.6256 37.4564 36.2103C37.0411 35.7951 36.8335 35.2805 36.8335 34.6666ZM45.5002 17.3333H6.2835C5.74183 17.3333 5.28141 17.1437 4.90225 16.7645C4.52308 16.3853 4.3335 15.9249 4.3335 15.3833V14.1916C4.3335 13.7944 4.4328 13.4513 4.63141 13.1624C4.83002 12.8735 5.09183 12.6388 5.41683 12.4583L24.0502 3.14159C24.6641 2.8527 25.3141 2.70825 26.0002 2.70825C26.6863 2.70825 27.3363 2.8527 27.9502 3.14159L46.4752 12.4041C46.8724 12.5846 47.1703 12.8555 47.3689 13.2166C47.5675 13.5777 47.6668 13.9569 47.6668 14.3541V15.1666C47.6668 15.7805 47.4592 16.2951 47.0439 16.7103C46.6286 17.1256 46.114 17.3333 45.5002 17.3333Z" fill="url(#paint0_linear_237_1897)"/>
</g>
<defs>
<linearGradient id="paint0_linear_237_1897" x1="26.0002" y1="2.70825" x2="26.0002" y2="45.4999" gradientUnits="userSpaceOnUse">
<stop stop-color="#9AC0FF"/>
<stop offset="1" stop-color="#3C85FF"/>
</linearGradient>
</defs>
</svg>
