<svg width="32" height="32" viewBox="0 0 32 32" fill="none" xmlns="http://www.w3.org/2000/svg">
<path d="M22.3636 16.525C22.5324 16.525 22.6943 16.442 22.8136 16.2943C22.933 16.1467 23 15.9464 23 15.7375C23 15.5286 22.933 15.3283 22.8136 15.1806C22.6943 15.033 22.5324 14.95 22.3636 14.95C22.1949 14.95 22.033 15.033 21.9137 15.1806C21.7943 15.3283 21.7273 15.5286 21.7273 15.7375C21.7273 15.9464 21.7943 16.1467 21.9137 16.2943C22.033 16.442 22.1949 16.525 22.3636 16.525ZM16 16.525C16.1688 16.525 16.3306 16.442 16.45 16.2943C16.5693 16.1467 16.6364 15.9464 16.6364 15.7375C16.6364 15.5286 16.5693 15.3283 16.45 15.1806C16.3306 15.033 16.1688 14.95 16 14.95C15.8312 14.95 15.6694 15.033 15.55 15.1806C15.4307 15.3283 15.3636 15.5286 15.3636 15.7375C15.3636 15.9464 15.4307 16.1467 15.55 16.2943C15.6694 16.442 15.8312 16.525 16 16.525ZM9.63636 16.525C9.80514 16.525 9.967 16.442 10.0863 16.2943C10.2057 16.1467 10.2727 15.9464 10.2727 15.7375C10.2727 15.5286 10.2057 15.3283 10.0863 15.1806C9.967 15.033 9.80514 14.95 9.63636 14.95C9.46759 14.95 9.30573 15.033 9.18639 15.1806C9.06705 15.3283 9 15.5286 9 15.7375C9 15.9464 9.06705 16.1467 9.18639 16.2943C9.30573 16.442 9.46759 16.525 9.63636 16.525Z" fill="white" stroke="white" stroke-width="2" stroke-linecap="round" stroke-linejoin="round"/>
<path d="M16 30C23.7322 30 30 23.7322 30 16C30 8.26779 23.7322 1.99999 16 1.99999C8.2678 1.99999 2 8.26779 2 16C2 18.5494 2.6818 20.942 3.8732 23L2.7 29.3L9 28.1268C11.1275 29.3572 13.5424 30.0034 16 30Z" stroke="white" stroke-width="2.5" stroke-linecap="round" stroke-linejoin="round"/>
</svg>
