<svg width="24" height="24" viewBox="0 0 24 24" fill="none" xmlns="http://www.w3.org/2000/svg">
<path d="M11.4185 4.60215L5.33064 10.7261H21.1305C21.4012 10.7261 21.6606 10.8343 21.8517 11.0266C22.0428 11.2189 22.15 11.4795 22.15 11.751C22.15 12.0225 22.0428 12.2831 21.8517 12.4754C21.6606 12.6677 21.4012 12.7759 21.1305 12.7759H5.33064L11.4185 18.8998L11.4185 18.8998C11.6098 19.0923 11.7171 19.3532 11.7171 19.625C11.7171 19.8968 11.6098 20.1577 11.4185 20.3501C11.2272 20.5427 10.9675 20.651 10.6965 20.651C10.4256 20.651 10.1659 20.5427 9.97453 20.3501L2.14919 12.4763C2.05429 12.381 1.97905 12.2679 1.92773 12.1435C1.87641 12.019 1.85 11.8857 1.85 11.751C1.85 11.6163 1.87641 11.4829 1.92773 11.3585C1.97905 11.234 2.05429 11.1209 2.14919 11.0257L9.97453 3.15181C10.1659 2.9593 10.4256 2.85098 10.6965 2.85098C10.9675 2.85098 11.2272 2.9593 11.4185 3.15181C11.6098 3.34429 11.7171 3.60516 11.7171 3.87697C11.7171 4.14878 11.6098 4.40965 11.4185 4.60213L11.4185 4.60215Z" fill="white" stroke="white" stroke-width="0.3"/>
</svg>
