<svg width="52" height="52" viewBox="0 0 52 52" fill="none" xmlns="http://www.w3.org/2000/svg">
<mask id="mask0_237_1893" style="mask-type:alpha" maskUnits="userSpaceOnUse" x="0" y="0" width="52" height="52">
<rect width="52" height="52" fill="#D9D9D9"/>
</mask>
<g mask="url(#mask0_237_1893)">
<path d="M23.8335 32.4999V28.1666H28.1668V32.4999H23.8335ZM21.6668 12.9999H30.3335V8.66659H21.6668V12.9999ZM8.66683 45.4999C7.47516 45.4999 6.45502 45.0756 5.60641 44.227C4.7578 43.3784 4.3335 42.3583 4.3335 41.1666V32.4999H19.5002V34.6666C19.5002 35.2805 19.7078 35.7951 20.1231 36.2103C20.5384 36.6256 21.0529 36.8333 21.6668 36.8333H30.3335C30.9474 36.8333 31.462 36.6256 31.8772 36.2103C32.2925 35.7951 32.5002 35.2805 32.5002 34.6666V32.4999H47.6668V41.1666C47.6668 42.3583 47.2425 43.3784 46.3939 44.227C45.5453 45.0756 44.5252 45.4999 43.3335 45.4999H8.66683ZM4.3335 28.1666V17.3333C4.3335 16.1416 4.7578 15.1214 5.60641 14.2728C6.45502 13.4242 7.47516 12.9999 8.66683 12.9999H17.3335V8.66659C17.3335 7.47492 17.7578 6.45478 18.6064 5.60617C19.455 4.75756 20.4752 4.33325 21.6668 4.33325H30.3335C31.5252 4.33325 32.5453 4.75756 33.3939 5.60617C34.2425 6.45478 34.6668 7.47492 34.6668 8.66659V12.9999H43.3335C44.5252 12.9999 45.5453 13.4242 46.3939 14.2728C47.2425 15.1214 47.6668 16.1416 47.6668 17.3333V28.1666H32.5002V25.9999C32.5002 25.386 32.2925 24.8714 31.8772 24.4562C31.462 24.0409 30.9474 23.8333 30.3335 23.8333H21.6668C21.0529 23.8333 20.5384 24.0409 20.1231 24.4562C19.7078 24.8714 19.5002 25.386 19.5002 25.9999V28.1666H4.3335Z" fill="url(#paint0_linear_237_1893)"/>
</g>
<defs>
<linearGradient id="paint0_linear_237_1893" x1="26.0002" y1="4.33325" x2="26.0002" y2="45.4999" gradientUnits="userSpaceOnUse">
<stop stop-color="#B8A5DF"/>
<stop offset="1" stop-color="#7C60B5"/>
</linearGradient>
</defs>
</svg>
