<svg width="17" height="16" viewBox="0 0 17 16" fill="none" xmlns="http://www.w3.org/2000/svg">
<g clip-path="url(#clip0_820_12)">
<path d="M3.52377 2.25599C3.74861 1.59764 4.17381 1.02614 4.73976 0.621581C5.30571 0.217021 5.98407 -0.000326103 6.67975 3.67247e-07H13.3464C14.2304 3.67247e-07 15.0783 0.351188 15.7034 0.976305C16.3285 1.60142 16.6797 2.44926 16.6797 3.33331V9.99994C16.6797 11.4639 15.7357 12.7066 14.4237 13.1559V13.6412C14.4237 14.0879 14.2677 14.6586 13.901 15.1292C13.5157 15.6252 12.9037 15.9999 12.065 15.9999H4.37176C3.88587 16.0033 3.40416 15.91 2.95462 15.7256C2.50508 15.5412 2.09668 15.2692 1.75315 14.9256C1.40963 14.5819 1.13784 14.1734 0.953572 13.7238C0.769305 13.2742 0.67624 12.7925 0.679785 12.3066V4.61731C0.679785 3.88531 0.94245 3.27598 1.40778 2.85332C1.86111 2.44132 2.45444 2.25732 3.03844 2.25732L3.52377 2.25599ZM3.34644 3.58931H3.03977C2.77164 3.57729 2.50883 3.6668 2.30378 3.83998C2.14644 3.98264 2.01311 4.21864 2.01311 4.61597V12.3079C2.01311 13.6319 3.04777 14.6679 4.3731 14.6679H12.065C12.4637 14.6679 12.697 14.5066 12.849 14.3106C12.9948 14.1168 13.0785 13.8835 13.089 13.6412V13.3333H6.67975C5.7957 13.3333 4.94786 12.9821 4.32274 12.3569C3.69762 11.7318 3.34644 10.884 3.34644 9.99994V3.58931ZM8.67974 5.3333H10.4037L6.87441 8.86128C6.81243 8.92326 6.76326 8.99685 6.72972 9.07783C6.69617 9.15882 6.67891 9.24562 6.67891 9.33328C6.67891 9.42093 6.69617 9.50773 6.72972 9.58872C6.76326 9.66971 6.81243 9.74329 6.87441 9.80527C6.9364 9.86726 7.00998 9.91643 7.09097 9.94997C7.17195 9.98352 7.25875 10.0008 7.34641 10.0008C7.43407 10.0008 7.52087 9.98352 7.60185 9.94997C7.68284 9.91643 7.75642 9.86726 7.81841 9.80527L11.3464 6.27596V7.99995C11.3464 8.17676 11.4166 8.34633 11.5416 8.47135C11.6667 8.59638 11.8362 8.66661 12.013 8.66661C12.1899 8.66661 12.3594 8.59638 12.4845 8.47135C12.6095 8.34633 12.6797 8.17676 12.6797 7.99995V4.66664C12.6797 4.48983 12.6095 4.32026 12.4845 4.19524C12.3594 4.07021 12.1899 3.99998 12.013 3.99998H8.67974C8.50293 3.99998 8.33336 4.07021 8.20833 4.19524C8.08331 4.32026 8.01307 4.48983 8.01307 4.66664C8.01307 4.84345 8.08331 5.01302 8.20833 5.13804C8.33336 5.26306 8.50293 5.3333 8.67974 5.3333Z" fill="white"/>
</g>
<defs>
<clipPath id="clip0_820_12">
<rect width="16" height="16" fill="white" transform="translate(0.679688)"/>
</clipPath>
</defs>
</svg>
