<svg width="26" height="26" viewBox="0 0 26 26" fill="none" xmlns="http://www.w3.org/2000/svg">
<circle cx="13" cy="13" r="13" fill="url(#paint0_linear_854_332)"/>
<path d="M15.6667 11.6667L18.9549 10.1493C19.065 10.0986 19.1873 10.0746 19.3103 10.0797C19.4332 10.0848 19.5527 10.1188 19.6574 10.1785C19.7621 10.2382 19.8485 10.3217 19.9085 10.4208C19.9684 10.52 19.9999 10.6317 20 10.7453V15.2547C19.9999 15.3683 19.9684 15.48 19.9085 15.5792C19.8485 15.6783 19.7621 15.7618 19.6574 15.8215C19.5527 15.8812 19.4332 15.9152 19.3103 15.9203C19.1873 15.9254 19.065 15.9014 18.9549 15.8507L15.6667 14.3333V11.6667ZM7 10.3333C7 9.97971 7.15218 9.64057 7.42307 9.39052C7.69395 9.14048 8.06135 9 8.44444 9H14.2222C14.6053 9 14.9727 9.14048 15.2436 9.39052C15.5145 9.64057 15.6667 9.97971 15.6667 10.3333V15.6667C15.6667 16.0203 15.5145 16.3594 15.2436 16.6095C14.9727 16.8595 14.6053 17 14.2222 17H8.44444C8.06135 17 7.69395 16.8595 7.42307 16.6095C7.15218 16.3594 7 16.0203 7 15.6667V10.3333Z" stroke="white" stroke-linecap="round" stroke-linejoin="round"/>
<defs>
<linearGradient id="paint0_linear_854_332" x1="13" y1="0" x2="13" y2="26" gradientUnits="userSpaceOnUse">
<stop stop-color="#2865D6"/>
<stop offset="1" stop-color="#153570"/>
</linearGradient>
</defs>
</svg>
