<svg width="70" height="70" viewBox="0 0 70 70" fill="none" xmlns="http://www.w3.org/2000/svg">
<path d="M39.3818 25.2448H42.4219V23.2277H38.4201L37.2723 24.6242L35.6592 20.9624L33.3326 26.1758L31.5334 21.583L28.8655 27.8516L25.5772 17.8902L21.6995 25.0276L20.1795 21.6141L17.5737 26.1758L15.3091 17.735L12.3 23.507H8.88765V25.5241H13.5409L14.7197 23.2588L16.9222 31.4513L19.9623 26.0827L21.5444 29.5894L25.1429 22.9485L28.6484 33.5615L31.5023 26.8896L33.2706 31.3582L35.7213 25.9276L36.838 28.4412L39.3818 25.2448ZM41.3051 41.3196C37.1172 45.509 31.5333 47.8364 25.6082 47.8364C19.6831 47.8364 14.0993 45.54 9.91137 41.3196C1.25637 32.6616 1.25637 18.5729 9.91137 9.91485C14.2234 5.60134 19.9313 3.42908 25.6082 3.42908C31.2852 3.42908 36.9621 5.60134 41.3051 9.91485C49.9601 18.5729 49.9601 32.6616 41.3051 41.3196ZM43.7248 43.7402C53.7137 33.7477 53.7137 17.4868 43.7248 7.49432C33.7359 -2.49811 17.4806 -2.49811 7.49169 7.49432C-2.49723 17.4868 -2.49723 33.7477 7.49169 43.7402C12.331 48.5812 18.7525 51.25 25.6082 51.25C32.464 51.25 38.8855 48.5812 43.7248 43.7402ZM54.2101 50.6294L65.1296 61.5528L61.5311 65.1525L50.6116 54.2291L54.2101 50.6294ZM70 61.5528L54.2101 45.7573L51.201 48.7674L46.6718 44.2367L44.2522 46.6572L48.7813 51.1879L45.7722 54.1981L61.5622 69.9936L70 61.5528Z" fill="white"/>
</svg>
