<svg width="19" height="17" viewBox="0 0 19 17" fill="none" xmlns="http://www.w3.org/2000/svg">
<path fill-rule="evenodd" clip-rule="evenodd" d="M6.50357 0.776393C6.58826 0.607001 6.7614 0.5 6.95078 0.5H12.0508C12.2402 0.5 12.4133 0.607001 12.498 0.776393L13.773 3.32639C13.8505 3.48139 13.8422 3.66546 13.7511 3.81287C13.66 3.96027 13.4991 4.05 13.3258 4.05H5.67578C5.50249 4.05 5.34156 3.96027 5.25046 3.81287C5.15935 3.66546 5.15107 3.48139 5.22857 3.32639L6.50357 0.776393ZM7.2598 1.5L6.4848 3.05H12.5168L11.7418 1.5H7.2598Z" fill="white"/>
<path fill-rule="evenodd" clip-rule="evenodd" d="M2.275 4.0498C1.84698 4.0498 1.5 4.39678 1.5 4.8248V15.0248C1.5 15.4528 1.84698 15.7998 2.275 15.7998H16.725C17.153 15.7998 17.5 15.4528 17.5 15.0248V4.8248C17.5 4.39678 17.153 4.0498 16.725 4.0498H2.275ZM0.5 4.8248C0.5 3.8445 1.29469 3.0498 2.275 3.0498H16.725C17.7053 3.0498 18.5 3.8445 18.5 4.8248V15.0248C18.5 16.0051 17.7053 16.7998 16.725 16.7998H2.275C1.29469 16.7998 0.5 16.0051 0.5 15.0248V4.8248Z" fill="white"/>
<path fill-rule="evenodd" clip-rule="evenodd" d="M6.74189 7.16767C7.47328 6.43628 8.46526 6.02539 9.49961 6.02539C10.534 6.02539 11.5259 6.43628 12.2573 7.16767C12.9887 7.89907 13.3996 8.89105 13.3996 9.92539C13.3996 10.9597 12.9887 11.9517 12.2573 12.6831C11.5259 13.4145 10.534 13.8254 9.49961 13.8254C8.46526 13.8254 7.47328 13.4145 6.74189 12.6831C6.0105 11.9517 5.59961 10.9597 5.59961 9.92539C5.59961 8.89105 6.0105 7.89907 6.74189 7.16767ZM9.49961 7.02539C8.73048 7.02539 7.99285 7.33093 7.449 7.87478C6.90514 8.41864 6.59961 9.15626 6.59961 9.92539C6.59961 10.6945 6.90514 11.4321 7.449 11.976C7.99285 12.5199 8.73048 12.8254 9.49961 12.8254C10.2687 12.8254 11.0064 12.5199 11.5502 11.976C12.0941 11.4321 12.3996 10.6945 12.3996 9.92539C12.3996 9.15626 12.0941 8.41864 11.5502 7.87478C11.0064 7.33093 10.2687 7.02539 9.49961 7.02539Z" fill="white"/>
</svg>
