<svg width="264" height="216" viewBox="0 0 264 216" fill="none" xmlns="http://www.w3.org/2000/svg">
<path opacity="0.2" d="M0.458984 73.6124C0.458984 134.304 53.3385 166.64 92.0378 195.594C105.692 205.803 118.846 215.426 132 215.426C145.154 215.426 158.308 205.816 171.962 195.582C210.675 166.653 263.541 134.304 263.541 73.6249C263.541 12.9459 191.193 -30.1234 132 28.2342C72.8065 -30.1234 0.458984 12.921 0.458984 73.6124Z" fill="url(#paint0_linear_1096_109)"/>
<path opacity="0.2" d="M6.23438 75.1225C6.23438 133.149 56.7922 164.066 93.7924 191.749C106.847 201.509 119.423 210.709 132 210.709C144.577 210.709 157.153 201.521 170.208 191.737C207.22 164.078 257.766 133.149 257.766 75.1344C257.766 17.1196 188.595 -24.0588 132 31.7367C75.4055 -24.0588 6.23438 17.0957 6.23438 75.1225Z" fill="url(#paint1_linear_1096_109)"/>
<path opacity="0.25" d="M12 76.6292C12 131.996 60.24 161.495 95.544 187.909C108 197.222 120 206 132 206C144 206 156 197.233 168.456 187.897C203.772 161.506 252 131.996 252 76.6406C252 21.2854 186 -18.0052 132 35.2323C78 -18.0052 12 21.2626 12 76.6292Z" fill="url(#paint2_linear_1096_109)"/>
<defs>
<linearGradient id="paint0_linear_1096_109" x1="132" y1="0.575195" x2="132" y2="215.426" gradientUnits="userSpaceOnUse">
<stop stop-color="#8E8E8E"/>
<stop offset="1" stop-color="#8E8E8E" stop-opacity="0.2"/>
</linearGradient>
<linearGradient id="paint1_linear_1096_109" x1="132" y1="5.29199" x2="132" y2="210.709" gradientUnits="userSpaceOnUse">
<stop stop-color="#8E8E8E"/>
<stop offset="1" stop-color="#8E8E8E" stop-opacity="0.2"/>
</linearGradient>
<linearGradient id="paint2_linear_1096_109" x1="132" y1="10" x2="132" y2="206" gradientUnits="userSpaceOnUse">
<stop stop-color="#8E8E8E"/>
<stop offset="1" stop-color="#8E8E8E" stop-opacity="0.2"/>
</linearGradient>
</defs>
</svg>
