<svg width="182" height="36" viewBox="0 0 182 36" fill="none" xmlns="http://www.w3.org/2000/svg">
<g clip-path="url(#clip0_790_36)">
<path d="M117.694 18.3652H104.285V20.9657H116.556V24.7038H120.213V21.1282V20.9657C120.213 19.5842 119.075 18.3652 117.694 18.3652Z" fill="#004098"/>
<path d="M120.214 6.09473H116.557V17.0654H120.214V12.027H122.651V9.42656H120.214V6.09473Z" fill="#004098"/>
<path d="M108.837 16.9028C111.925 16.9028 114.932 14.8712 114.526 12.352C114.363 11.2143 113.876 10.4017 113.063 9.75154H115.338V7.23236H110.706V5.36328H107.131V7.23236H101.93V9.75154H104.53C103.555 10.5642 103.311 11.2956 103.149 12.352C102.661 14.7087 105.424 16.9028 108.837 16.9028C108.756 16.9028 108.756 16.9028 108.837 16.9028ZM106.724 12.1082C106.724 10.808 107.699 9.83281 108.837 9.75154H108.918C110.056 9.75154 110.95 10.808 110.95 12.1082C110.95 13.4084 109.975 14.4649 108.837 14.4649H108.756C107.618 14.4649 106.724 13.4084 106.724 12.1082Z" fill="#004098"/>
<path d="M140.367 9.26396C140.367 9.18269 140.367 9.10143 140.367 9.10143C140.367 7.71994 139.23 6.50098 137.767 6.50098H124.521V9.10143H136.711V20.8035H134.435V13.2459H131.347V20.8035H129.478V13.2459H126.39V20.8035H123.221V23.4039H141.993V20.8035H140.367V9.26396Z" fill="#004098"/>
<path d="M156.945 8.0452H155.645H154.345V6.50119H153.126H150.932V8.0452H148.819H146.706V6.50119H143.293V12.7585C143.293 14.5463 144.512 15.1964 145.731 15.1964H148.819H153.126H154.507V14.0587H155.726H157.027V16.8217C156.62 16.6592 156.214 16.5779 155.726 16.4967C154.914 16.3341 154.101 16.2529 153.207 16.2529C151.582 16.2529 150.119 16.5779 148.9 17.0655C147.031 17.8782 145.893 19.1784 145.893 20.6411C145.893 22.1039 147.112 23.4041 148.9 24.2168C150.119 24.7043 151.582 25.0294 153.207 25.0294C154.101 25.0294 154.914 24.9481 155.726 24.7856C158.408 24.2168 160.358 22.6727 160.44 20.8037C160.521 20.3973 160.521 20.0723 160.521 19.666C160.521 15.4402 160.521 10.9707 160.521 6.41992H156.945V8.0452ZM150.932 12.6773H148.819H146.706V10.3206H148.819H150.932V12.6773ZM155.645 21.9414C154.995 22.3477 154.101 22.5102 153.126 22.5102C151.176 22.5102 149.632 21.6163 149.632 20.5599C149.632 19.5034 151.176 18.6095 153.126 18.6095C154.101 18.6095 154.995 18.8533 155.645 19.1784C156.295 19.5034 156.62 19.991 156.62 20.5599C156.62 21.0475 156.214 21.535 155.645 21.9414ZM156.945 11.9459H155.645H154.345V10.3206H155.645H156.945V11.9459Z" fill="#004098"/>
<path d="M177.343 6.33852V16.4965H173.361V18.9345H177.343V21.7787H170.029C169.948 21.7787 169.867 21.7787 169.867 21.7787C169.786 21.6974 169.786 21.6974 169.786 21.6974V18.7719H169.379H167.51C167.429 18.7719 168.485 18.6094 169.379 18.2031C169.786 18.0406 170.029 17.878 170.273 17.7155C171.248 17.0654 171.655 16.5778 172.305 15.3588H175.799V12.9209C174.905 13.0022 174.093 13.0022 173.199 13.0834C174.255 12.4333 174.905 11.3769 174.905 10.2392C174.905 8.04507 172.386 6.17599 169.298 6.09473C166.21 6.09473 163.691 8.04507 163.691 10.2392C163.691 11.4582 164.503 12.4333 165.722 13.1647C164.747 13.1647 163.772 13.0834 162.797 13.0834V15.4401H167.998C167.998 15.5214 167.429 16.2527 167.429 16.2527C166.535 16.9841 165.316 17.1466 163.122 17.2279V19.2595H165.479C165.885 19.2595 166.129 19.8284 166.047 20.0722V22.5101C166.047 23.8916 166.86 24.5417 167.917 24.5417H169.379H180.756V6.33852H177.343ZM167.023 10.5643C167.023 9.34529 168.16 8.37012 169.461 8.37012C170.842 8.37012 171.98 9.34529 171.98 10.5643C171.98 11.7832 170.842 12.7584 169.461 12.7584C168.16 12.8396 167.023 11.7832 167.023 10.5643Z" fill="#004098"/>
<path d="M78.6068 6.17578H74.8687V16.09H71.2931H64.0605V21.7785V21.8598C64.0605 23.2412 65.1982 24.3789 66.661 24.3789H71.3743H78.6881V11.7017H81.2073V9.10129H78.6881V6.17578H78.6068ZM74.8687 21.7785H71.2931H67.7174V18.6905H71.2931H74.8687V21.7785Z" fill="#004098"/>
<path d="M72.6734 14.4646V11.8642H65.1159V6.58203H61.459V11.8642C61.459 11.9455 61.459 11.9455 61.459 11.9455C61.459 13.327 62.5967 14.4646 64.0594 14.4646H72.6734Z" fill="#004098"/>
<path d="M55.2832 10.3208H52.4389V12.9213H55.2832V21.9416H48.5382H47.9694V18.0409H44.3125V21.9416C44.3125 23.4043 45.4502 24.542 46.9129 24.542H48.5382H58.94V23.8919V6.33887H55.2832V10.3208Z" fill="#004098"/>
<path d="M46.6698 14.5467C47.7262 15.9282 49.3515 17.0659 52.6833 17.0659L52.7646 14.5467C50.3267 14.4654 48.6201 12.9214 48.6201 9.18325H52.5208V6.66406H46.7511H40.9V9.18325H44.8007C44.8007 12.9214 43.0942 14.4654 40.6562 14.5467L40.7375 17.0659C43.9881 17.0659 45.6134 15.9282 46.6698 14.5467Z" fill="#004098"/>
<path d="M96.3211 12.0269H94.452V6.50098H90.9577V18.7719H86.4069V9.42648H89.5762V6.82603H82.75V18.6906V18.7719C82.75 20.1533 83.8877 21.291 85.3505 21.291H90.9577V24.6229H94.452V14.5461H96.3211V24.6229H99.8155V6.50098H96.3211V12.0269Z" fill="#004098"/>
<path d="M43.7435 28.5241C43.6623 28.1991 43.4997 27.6302 42.6871 27.6302C42.1995 27.6302 41.5494 27.9553 41.5494 29.4993C41.5494 30.4745 41.8744 31.3684 42.6871 31.3684C43.2559 31.3684 43.581 31.0433 43.7435 30.3932H44.7187C44.5562 31.5309 43.906 32.4248 42.6871 32.4248C41.4681 32.4248 40.5742 31.4496 40.5742 29.5806C40.5742 27.7115 41.4681 26.7363 42.6871 26.7363C44.0686 26.7363 44.6374 27.874 44.6374 28.6867H43.7435V28.5241Z" fill="#004098"/>
<path d="M46.3443 29.7429V32.1808H45.3691V26.8174H46.3443V28.849H48.1321V26.8174H49.1073V32.1808H48.1321V29.7429H46.3443Z" fill="#004098"/>
<path d="M50.733 29.4985C50.733 27.9545 51.4644 27.6295 51.9519 27.6295C52.4395 27.6295 53.1709 28.0358 53.1709 29.4985C53.1709 31.0426 52.4395 31.3676 51.9519 31.3676C51.4644 31.3676 50.733 31.0426 50.733 29.4985ZM49.7578 29.4985C49.7578 32.0177 51.3831 32.3428 51.9519 32.3428C52.5208 32.3428 54.1461 32.0177 54.1461 29.4985C54.1461 26.9794 52.5208 26.6543 51.9519 26.6543C51.3831 26.6543 49.7578 26.9794 49.7578 29.4985Z" fill="#004098"/>
<path d="M57.7212 26.8174H58.6151V32.1808H57.6399L55.7709 28.3614V32.1808H54.877V26.8174H55.8521L57.7212 30.5555V26.8174Z" fill="#004098"/>
<path d="M62.272 26.8174H63.1659V32.1808H62.272L60.3216 28.3614V32.1808H59.4277V26.8174H60.4842L62.272 30.5555V26.8174Z" fill="#004098"/>
<path d="M65.8472 28.0363L66.4161 30.1492H65.2784L65.8472 28.0363ZM65.0346 31.0431H66.7411L67.0662 32.1808H68.1226L66.4973 26.8174H65.3597L63.7344 32.1808H64.7095L65.0346 31.0431Z" fill="#004098"/>
<path d="M73.0809 32.1808H72.1869V27.7113H72.1057L71.293 32.1808H70.3179L69.5052 27.7113V32.1808H68.6113V26.8174H69.9928L70.8055 31.0431H70.8867L71.6994 26.8174H73.0809V32.1808Z" fill="#004098"/>
<path d="M79.3384 26.8174H80.2323V32.1808H79.2571L77.388 28.3614V32.1808H76.4941V26.8174H77.4693L79.3384 30.5555V26.8174Z" fill="#004098"/>
<path d="M82.9136 28.0363L83.4825 30.1492H82.3448L82.9136 28.0363ZM82.101 31.0431H83.8076L84.1326 32.1808H85.189L83.5638 26.8174H82.4261L80.8008 32.1808H81.7759L82.101 31.0431Z" fill="#004098"/>
<path d="M87.0578 32.1808H86.0827V27.7113H84.7012V26.8174H88.4393V27.7113H87.0578V32.1808Z" fill="#004098"/>
<path d="M89.9029 32.1808H88.9277V26.8174H89.9029V32.1808Z" fill="#004098"/>
<path d="M91.4466 29.4985C91.4466 27.9545 92.178 27.6295 92.6656 27.6295C93.1532 27.6295 93.8846 28.0358 93.8846 29.4985C93.8846 31.0426 93.1532 31.3676 92.6656 31.3676C92.178 31.3676 91.4466 31.0426 91.4466 29.4985ZM90.5527 29.4985C90.5527 32.0177 92.178 32.3428 92.7469 32.3428C93.3157 32.3428 94.941 32.0177 94.941 29.4985C94.941 26.9794 93.3157 26.6543 92.7469 26.6543C92.0967 26.6543 90.5527 26.9794 90.5527 29.4985Z" fill="#004098"/>
<path d="M98.4341 26.8174H99.328V32.1808H98.3528L96.4837 28.3614V32.1808H95.5898V26.8174H96.6463L98.4341 30.5555V26.8174Z" fill="#004098"/>
<path d="M102.011 28.0363L102.58 30.1492H101.442L102.011 28.0363ZM101.199 31.0431H102.905L103.23 32.1808H104.287L102.661 26.8174H101.524L99.8984 32.1808H100.874L101.199 31.0431Z" fill="#004098"/>
<path d="M105.749 31.2056H108.024V32.1808H104.773V26.8174H105.749V31.2056Z" fill="#004098"/>
<path d="M114.12 30.3117C114.12 31.6932 113.388 32.3433 112.251 32.3433C111.844 32.3433 111.194 32.2621 110.788 31.6932C110.544 31.3682 110.463 30.9619 110.463 30.393V26.8174H111.438V30.3117C111.438 31.0431 111.844 31.3682 112.251 31.3682C112.901 31.3682 113.145 30.9619 113.145 30.3117V26.8174H114.12V30.3117Z" fill="#004098"/>
<path d="M117.776 26.8174H118.67V32.1808H117.695L115.826 28.3614V32.1808H114.932V26.8174H115.988L117.776 30.5555V26.8174Z" fill="#004098"/>
<path d="M120.458 32.1808H119.482V26.8174H120.458V32.1808Z" fill="#004098"/>
<path d="M123.952 26.8174H124.927L123.383 32.1808H122.489L120.945 26.8174H122.002L122.977 30.8806L123.952 26.8174Z" fill="#004098"/>
<path d="M128.909 27.7113H126.471V28.849H128.665V29.8242H126.471V31.2056H128.99V32.1808H125.496V26.8174H128.909V27.7113Z" fill="#004098"/>
<path d="M130.697 29.1743V27.7115H131.916C132.485 27.7115 132.566 28.1178 132.566 28.4429C132.566 29.0117 132.322 29.1743 131.835 29.1743H130.697ZM129.722 32.181H130.697V30.0682H131.672C132.404 30.0682 132.404 30.3119 132.404 31.1246C132.404 31.6934 132.404 31.9372 132.485 32.181H133.541V32.0185C133.298 31.9372 133.298 31.6934 133.298 30.9621C133.298 29.9869 133.054 29.8244 132.729 29.5806C133.216 29.418 133.46 28.9305 133.46 28.2803C133.46 27.7928 133.216 26.7363 131.997 26.7363H129.641V32.181H129.722Z" fill="#004098"/>
<path d="M135.004 30.555C135.004 30.88 135.167 31.4489 135.979 31.4489C136.467 31.4489 136.954 31.2864 136.954 30.7175C136.954 30.3112 136.629 30.1487 136.142 30.0674L135.654 29.9049C134.923 29.6611 134.191 29.4985 134.191 28.2796C134.191 27.7107 134.435 26.6543 135.979 26.6543C137.361 26.6543 137.767 27.7107 137.767 28.3608H136.873C136.873 28.1171 136.792 27.5482 135.898 27.5482C135.573 27.5482 135.085 27.7107 135.085 28.1983C135.085 28.6046 135.41 28.6859 135.573 28.7672L136.711 29.0922C137.361 29.2547 137.93 29.5798 137.93 30.555C137.93 32.1803 136.548 32.3428 136.142 32.3428C134.435 32.3428 134.191 31.2051 134.191 30.555H135.004Z" fill="#004098"/>
<path d="M139.392 32.1808H138.498V26.8174H139.392V32.1808Z" fill="#004098"/>
<path d="M142.236 32.1808H141.26V27.7113H139.879V26.8174H143.617V27.7113H142.236V32.1808Z" fill="#004098"/>
<path d="M146.3 32.1808H145.325V30.1492L143.781 26.8174H144.919L145.813 29.174L146.788 26.8174H147.844L146.3 30.1492V32.1808Z" fill="#004098"/>
<path d="M151.256 29.7429V32.1808H150.281V26.8174H151.256V28.849H153.044V26.8174H153.938V32.1808H153.044V29.7429H151.256Z" fill="#004098"/>
<path d="M155.645 29.4985C155.645 27.9545 156.376 27.6295 156.864 27.6295C157.352 27.6295 158.083 28.0358 158.083 29.4985C158.083 31.0426 157.352 31.3676 156.864 31.3676C156.376 31.3676 155.645 31.0426 155.645 29.4985ZM154.67 29.4985C154.67 32.0177 156.295 32.3428 156.864 32.3428C157.433 32.3428 159.058 32.0177 159.058 29.4985C159.058 26.9794 157.433 26.6543 156.864 26.6543C156.295 26.6543 154.67 26.9794 154.67 29.4985Z" fill="#004098"/>
<path d="M160.522 30.555C160.522 30.88 160.684 31.4489 161.497 31.4489C161.984 31.4489 162.472 31.2864 162.472 30.7175C162.472 30.3112 162.147 30.1487 161.659 30.0674L161.172 29.9049C160.44 29.6611 159.709 29.4985 159.709 28.2796C159.709 27.7107 159.953 26.6543 161.497 26.6543C162.878 26.6543 163.285 27.7107 163.285 28.3608H162.391C162.391 28.1171 162.309 27.5482 161.416 27.5482C161.09 27.5482 160.603 27.7107 160.603 28.1983C160.603 28.6046 160.928 28.6859 161.09 28.7672L162.228 29.0922C162.878 29.2547 163.447 29.5798 163.447 30.555C163.447 32.1803 162.066 32.3428 161.659 32.3428C159.953 32.3428 159.709 31.2051 159.709 30.555H160.522Z" fill="#004098"/>
<path d="M164.991 29.3366V27.7113H165.722C166.291 27.7113 166.535 27.9551 166.535 28.4427C166.535 28.6865 166.535 29.2553 165.803 29.2553H164.991V29.3366ZM164.991 30.2305H166.128C167.347 30.2305 167.591 29.0115 167.591 28.5239C167.591 27.4675 167.022 26.8174 166.128 26.8174H164.016V32.1808H164.991V30.2305Z" fill="#004098"/>
<path d="M169.135 32.1808H168.16V26.8174H169.135V32.1808Z" fill="#004098"/>
<path d="M171.898 32.1808H171.005V27.7113H169.623V26.8174H173.28V27.7113H171.898V32.1808Z" fill="#004098"/>
<path d="M175.066 28.0363L175.635 30.1492H174.497L175.066 28.0363ZM174.253 31.0431H175.96L176.285 32.1808H177.341L175.716 26.8174H174.578L172.953 32.1808H173.928L174.253 31.0431Z" fill="#004098"/>
<path d="M178.805 31.2056H181.081V32.1808H177.83V26.8174H178.805V31.2056Z" fill="#004098"/>
<path d="M18.9586 0C8.96312 0 0.917969 8.04515 0.917969 18.0406C0.917969 27.9549 8.96312 36.0813 18.9586 36.0813C28.8728 36.0813 36.9992 28.0361 36.9992 18.0406C36.918 8.04515 28.8728 0 18.9586 0Z" fill="#B5B5B6"/>
<path d="M18.9583 3.90039C11.157 3.90039 4.81836 10.239 4.81836 18.0403C4.81836 25.8417 11.157 32.1803 18.9583 32.1803C26.7597 32.1803 33.0983 25.8417 33.0983 18.0403C33.017 10.239 26.7597 3.90039 18.9583 3.90039Z" fill="white"/>
<path d="M9.28808 15.7654C9.12555 7.15141 15.7892 11.7022 16.3581 6.33877C16.3581 6.09498 16.4393 11.7022 16.4393 13.0024L12.4574 13.0837L12.5386 16.578H10.1007C9.45061 16.7406 9.28808 16.0905 9.28808 15.7654Z" fill="#E60012"/>
<path d="M28.1415 14.5461C28.304 23.1601 21.6403 18.6093 21.0715 23.9727C21.0715 24.2165 20.9902 18.6093 20.9902 17.3091L24.9722 17.2278L24.8909 13.7334H27.3288C27.9789 13.6522 28.1415 14.221 28.1415 14.5461Z" fill="#E60012"/>
<path d="M17.9826 5.76972C26.5966 5.60719 22.2083 12.1896 27.5717 12.8397L20.9081 13.0022L20.8268 9.02029L17.3324 9.10155L17.2512 6.66363C17.1699 5.85098 17.6575 5.68846 17.9826 5.76972Z" fill="#E60012"/>
<path d="M19.4466 24.6229C10.8326 24.8667 15.2209 18.2031 9.85742 17.5529L16.5211 17.4717L16.6023 21.4536L20.0967 21.3724L20.178 23.8103C20.2592 24.4604 19.7716 24.6229 19.4466 24.6229Z" fill="#E60012"/>
<path d="M21.3145 26.6545C21.6395 26.5732 22.9397 28.5235 23.3461 30.2301C29.6847 27.6296 32.6102 20.8034 29.6034 14.4648C28.7908 15.8463 29.4409 17.5529 29.1158 18.6906C28.7908 19.8283 27.0842 20.7222 26.5966 20.8847C22.6147 22.1037 24.7275 23.8915 23.3461 25.1917C22.6147 25.8418 21.7208 25.8418 21.3145 26.6545Z" fill="#009944"/>
<path d="M15.4645 25.1916C13.5142 24.7852 13.3517 23.5663 13.0266 22.5098C12.214 20.2345 11.2388 20.1532 10.1011 19.7469C8.96342 19.3405 8.63836 17.9591 8.15078 17.5527C6.76929 25.1103 13.3517 32.3428 21.7219 30.7175C21.5594 27.1419 17.8212 25.6791 15.4645 25.1916Z" fill="#009944"/>
<path d="M12.2131 1.86914L11.7255 2.11293L12.4569 3.49442L11.9693 3.73822L10.9941 4.2258L11.4005 5.03844C11.4817 5.20097 11.7255 5.28223 11.9693 5.20097L12.5382 4.87591L13.5133 4.38833L12.6194 2.68178L12.9445 2.43799L12.782 2.11293L12.4569 2.27546L12.2131 1.86914ZM12.8632 4.2258L12.2944 4.46959L11.8068 4.71338L11.563 4.30706L12.1318 4.06327L12.6194 3.81948L12.8632 4.2258Z" fill="white"/>
<path d="M12.0504 3.41337L11.8878 3.08831L10.8314 3.65716L10.4251 2.92578L9.9375 3.16957L10.3438 3.90095C10.4251 4.06348 10.6689 4.14474 10.9127 4.06348L12.0504 3.41337Z" fill="white"/>
<path d="M8.71924 4.63198L8.39418 4.95703L8.63798 5.28209L8.96303 4.95703L9.85694 6.01347L9.0443 6.66358V6.74484L8.63798 6.33852L8.15039 6.66358L8.55671 7.15116C8.71924 7.31369 8.96303 7.31369 9.12556 7.15116L9.28809 6.98864L10.5071 5.9322L10.4258 5.85094L8.71924 3.81934L8.31292 4.22566L8.71924 4.63198Z" fill="white"/>
<path d="M8.15144 6.01354C8.39523 6.0948 8.72029 6.0948 9.04535 5.68848L8.80155 5.44469C8.55776 5.68848 8.15144 5.68848 7.82638 5.20089L8.2327 4.79457L7.98891 4.55078L7.3388 5.11963L6.60742 5.68848L6.85121 6.01354L7.3388 5.60721C7.74512 6.01354 7.66386 6.41986 7.42006 6.66365L7.66386 6.9887C8.07018 6.58238 8.15144 6.33859 8.15144 6.01354Z" fill="white"/>
<path d="M15.9512 1.62535L15.7074 1.70661L15.5449 0.893974L15.0573 0.975238L15.4636 2.84431L14.7322 3.00684L14.3259 1.62535L14.8135 1.54409L14.7322 1.13777L13.6758 1.38156L14.0821 3.16937C14.1634 3.41316 14.3259 3.57569 14.5697 3.49443L15.4636 3.25063L15.5449 3.73822L16.0324 3.65695L15.7074 2.11294L15.9512 2.03167L16.3575 3.57569L16.8451 3.49443L16.3575 0.731445L15.7886 0.812709L15.9512 1.62535Z" fill="white"/>
<path d="M20.0152 2.51953H17.9023V2.92585H19.7714V3.4947H20.3403V2.92585C20.3403 2.68206 20.1777 2.51953 20.0152 2.51953Z" fill="white"/>
<path d="M20.4216 0.650391H19.8527L19.7715 2.27567L20.3403 2.35694V1.5443H20.7467V1.13798H20.4216V0.650391Z" fill="white"/>
<path d="M18.6338 2.27511C19.1214 2.27511 19.609 1.95006 19.5277 1.54374C19.5277 1.38121 19.4464 1.21868 19.2839 1.13742H19.609V0.812361H18.8776V0.487305H18.3087V0.812361H17.4961V1.21868H17.9024C17.7399 1.38121 17.7399 1.46247 17.6586 1.625C17.6586 1.95006 18.0649 2.27511 18.6338 2.27511ZM18.3087 1.54374C18.3087 1.29995 18.4713 1.21868 18.6338 1.21868C18.7963 1.21868 18.9588 1.38121 18.9588 1.54374C18.9588 1.70627 18.7963 1.95006 18.6338 1.95006C18.39 1.86879 18.3087 1.70627 18.3087 1.54374Z" fill="white"/>
<path d="M24.4845 1.86893C24.4845 1.78767 24.4845 1.78767 24.4845 1.86893C24.5658 1.62514 24.4033 1.38135 24.2407 1.38135L22.2091 0.8125L22.1279 1.21882L23.9157 1.70641L23.4281 3.49422L23.103 3.41295L23.4281 2.27525L22.9405 2.19399L22.6967 3.25042L22.4529 3.16916L22.778 2.03146L22.2904 1.9502L21.9653 3.08789L21.4777 2.92537L21.3965 3.33169L24.2407 4.06306L24.322 3.65674L24.0782 3.57548L24.4845 1.86893Z" fill="white"/>
<path d="M27.7358 3.16916L27.5732 3.08789L27.4107 3.00663L27.492 2.76284L27.3294 2.68157L27.0044 2.51904L26.9231 2.68157L26.6793 2.51904L26.4355 2.35652L26.5168 2.19399L26.0292 1.9502L25.5416 2.76284C25.3791 3.00663 25.5416 3.16916 25.7042 3.25042L26.1105 3.49421L26.6793 3.81927L26.8419 3.90053L26.9231 3.81927L27.0856 3.90053L27.2482 3.9818L27.0044 4.38812C27.0044 4.30685 26.9231 4.30685 26.8419 4.22559C26.7606 4.14433 26.6793 4.06306 26.5168 3.9818C26.273 3.81927 26.1105 3.81927 25.8667 3.73801C25.5416 3.73801 25.2978 3.81927 25.2166 3.9818C25.1353 4.14433 25.1353 4.46938 25.3791 4.71318C25.5416 4.8757 25.7042 5.03823 25.8667 5.1195C25.9479 5.20076 26.1105 5.20076 26.1917 5.28202C26.5981 5.44455 27.0044 5.36329 27.1669 5.1195C27.1669 5.03823 27.2482 5.03823 27.2482 4.95697C27.5732 4.38812 27.8983 3.81927 28.2233 3.16916L27.7358 2.92536V3.16916ZM26.5981 3.33169L26.3543 3.16916L26.1105 3.00663L26.273 2.68157L26.5168 2.8441L26.7606 3.00663L26.5981 3.33169ZM26.5168 4.95697C26.4355 4.95697 26.273 4.95697 26.1105 4.8757C25.8667 4.71317 25.7042 4.46938 25.7854 4.38812C25.8667 4.22559 26.1105 4.22559 26.4355 4.38812C26.5981 4.46938 26.6793 4.55065 26.7606 4.63191C26.8419 4.71317 26.8419 4.79444 26.7606 4.8757C26.6793 4.8757 26.5981 4.95697 26.5168 4.95697ZM27.4107 3.73801L27.2482 3.65674L27.0856 3.57548L27.1669 3.25042L27.3294 3.33169L27.492 3.41295L27.4107 3.73801Z" fill="white"/>
<path d="M31.0662 5.36322L30.0097 6.50092L29.5221 6.0946L29.2784 6.33839L29.7659 6.74471L29.4409 7.06977L28.6282 6.33839L28.9533 6.01334H28.872L28.6282 5.85081C28.6282 5.85081 28.7908 5.93207 28.872 6.01334C28.9533 6.01334 28.9533 6.01334 29.0346 6.01334C29.1971 6.01334 29.2784 6.01334 29.5221 5.93207L29.9285 6.33839L30.1723 5.93207C30.091 5.85081 29.9285 5.76954 29.8472 5.68828C30.0097 5.68828 30.2535 5.68828 30.3348 5.52575C30.5786 5.28196 30.4973 4.79438 30.1723 4.46932C29.8472 4.14426 29.3596 4.063 29.1158 4.30679C28.9533 4.46932 28.9533 4.63185 29.0346 4.87564C28.9533 4.79438 28.7908 4.63185 28.7095 4.55058L28.4657 4.87564L29.0346 5.44449H28.872C28.7095 5.44449 28.547 5.36322 28.3032 5.11943L28.0594 5.36322L28.3032 5.60702C28.3845 5.68828 28.3032 5.76954 28.3032 5.76954L28.0594 6.01334C27.8969 6.17587 27.8969 6.33839 28.0594 6.41966L28.2219 6.58219L29.5221 7.80115L31.3912 5.76954L31.0662 5.36322ZM29.4409 4.79438C29.6034 4.63185 29.7659 4.63185 29.9285 4.79438C30.091 4.9569 30.091 5.2007 30.0097 5.28196C29.8472 5.44449 29.6847 5.44449 29.5221 5.28196C29.3596 5.11943 29.2784 4.87564 29.4409 4.79438Z" fill="white"/>
<path d="M33.0995 8.20801L33.9121 9.5895L31.8805 10.8897L31.6367 10.4834L33.3433 9.34571L32.7744 8.37054L33.0995 8.20801Z" fill="white"/>
<path d="M33.6674 11.1336L33.0173 11.7024L33.8299 11.6212L33.6674 11.1336ZM34.2363 10.0771L34.3988 10.5647L33.9112 10.9711L34.2363 11.6212L34.8864 11.5399L35.0489 12.0275L32.5297 12.19L32.3672 11.7024L34.2363 10.0771Z" fill="white"/>
<path d="M33.1798 12.5957L33.3423 13.2458L35.2926 12.5957L35.4552 13.0833L33.5048 13.6521L33.6673 14.3022L33.261 14.3835L32.7734 12.7582L33.1798 12.5957Z" fill="white"/>
<path d="M35.6985 14.1396L35.861 14.546L33.4231 15.1148L33.3418 14.6272L35.6985 14.1396Z" fill="white"/>
<path d="M34.3986 15.6028C34.3173 15.6028 34.1548 15.6841 34.0735 15.7653C33.9923 15.8466 33.9923 15.9279 33.9923 16.0091L34.0735 16.4967L34.8862 16.4155L34.8049 15.9279C34.8049 15.8466 34.7236 15.7653 34.6424 15.6841C34.5611 15.6028 34.4798 15.6028 34.3986 15.6028ZM34.3173 15.1152C34.5611 15.1152 34.8049 15.1152 34.9674 15.2778C35.13 15.4403 35.2112 15.5216 35.2112 15.7653L35.2925 16.2529L36.1051 16.1717L36.1864 16.6593L33.7485 16.9843L33.5859 16.0091C33.5859 15.7653 33.5859 15.6028 33.6672 15.4403C33.8297 15.2778 34.0735 15.1152 34.3173 15.1152Z" fill="white"/>
<path d="M35.5359 17.3092C35.7796 17.3092 35.9422 17.3905 36.1047 17.553C36.2672 17.7155 36.2672 17.9593 36.2672 18.2031C36.2672 18.4469 36.186 18.6907 36.0234 18.8532C35.8609 19.0158 35.6984 19.097 35.5359 19.097V18.6095C35.6171 18.6095 35.6984 18.5282 35.7796 18.5282C35.8609 18.4469 35.8609 18.3657 35.9422 18.2031C35.9422 18.0406 35.9422 17.9593 35.8609 17.8781C35.7796 17.7968 35.6984 17.7968 35.6171 17.7968C35.4546 17.7968 35.3733 17.8781 35.2921 18.1219C35.2108 18.2844 35.1295 18.5282 35.0483 18.6907C34.8857 18.9345 34.7232 19.0158 34.4794 19.0158C34.2356 19.0158 34.0731 18.9345 33.9106 18.772C33.8293 18.6095 33.748 18.4469 33.748 18.2031C33.748 17.9593 33.8293 17.7968 33.9106 17.6343C33.9918 17.4718 34.2356 17.3905 34.3982 17.3905V17.8781C34.3169 17.8781 34.2356 17.8781 34.1544 17.9593C34.0731 18.0406 34.0731 18.1219 34.0731 18.2031C34.0731 18.2844 34.0731 18.3657 34.1544 18.4469C34.2356 18.5282 34.3169 18.5282 34.3982 18.5282C34.4794 18.5282 34.5607 18.4469 34.642 18.2031C34.7232 17.8781 34.8045 17.7155 34.8857 17.6343C35.0483 17.3905 35.2108 17.228 35.5359 17.3092Z" fill="white"/>
<path d="M34.8866 19.8281C34.6428 19.7468 34.399 19.7468 34.2365 19.8281C34.0739 19.9093 33.9114 19.9906 33.9114 20.2344C33.9114 20.3969 33.9114 20.5594 34.0739 20.722C34.2365 20.8845 34.399 20.9658 34.6428 20.9658C34.8866 21.047 35.1304 21.047 35.2929 20.9658C35.4554 20.8845 35.618 20.8032 35.618 20.5594C35.618 20.3969 35.618 20.2344 35.4554 20.0719C35.3742 19.9906 35.1304 19.9093 34.8866 19.8281ZM34.9678 19.3405C35.2929 19.4217 35.618 19.5843 35.7805 19.7468C36.0243 19.9906 36.1055 20.3156 36.0243 20.6407C35.943 20.9658 35.7805 21.2095 35.4554 21.3721C35.2116 21.4533 34.8866 21.5346 34.5615 21.4533C34.2365 21.3721 33.9114 21.2095 33.7489 21.047C33.5051 20.8032 33.4238 20.4782 33.5051 20.1531C33.5863 19.8281 33.7489 19.5843 34.0739 19.503C34.3177 19.3405 34.6428 19.2592 34.9678 19.3405Z" fill="white"/>
<path d="M35.6997 22.2665L35.5372 22.6729L34.4808 22.4291L34.237 23.1604L35.2934 23.4855L35.1309 23.8918L32.8555 23.2417L32.9367 22.7541L33.9119 22.9979L34.1557 22.2665L33.1805 22.0227L33.3431 21.5352L35.6997 22.2665Z" fill="white"/>
<path d="M32.4486 24.1357L33.505 25.5172L34.2364 25.9236L34.0739 26.3299L33.2612 25.9236L31.5547 25.8423L31.7985 25.3547L32.9362 25.436L32.2048 24.6233L32.4486 24.1357Z" fill="white"/>
<path d="M31.7983 26.0856L31.4732 26.5732L33.1798 27.7921L32.8547 28.1985L31.2294 26.9795L30.8231 27.4671L30.498 27.3046L31.5545 25.8418L31.7983 26.0856Z" fill="white"/>
<path d="M32.2859 29.011L31.9609 29.3361L30.0918 27.7921L30.3356 27.3857L32.2859 29.011Z" fill="white"/>
<path d="M31.1473 29.1736C31.3098 29.3362 31.391 29.4987 31.391 29.7425C31.391 29.9863 31.3098 30.1488 31.066 30.3113C30.8222 30.4738 30.6597 30.6364 30.4159 30.6364C30.2534 30.6364 30.0908 30.5551 29.847 30.4738L30.1721 30.1488C30.2534 30.2301 30.3346 30.2301 30.4159 30.2301C30.4971 30.2301 30.6597 30.1488 30.7409 30.0675C30.8222 29.9863 30.9035 29.905 30.9035 29.7425C30.9035 29.6612 30.9035 29.5799 30.8222 29.4987C30.7409 29.4174 30.5784 29.4174 30.3346 29.4987C30.1721 29.5799 29.9283 29.6612 29.7658 29.7425C29.522 29.8237 29.3594 29.7425 29.1969 29.5799C29.0344 29.4174 28.9531 29.2549 28.9531 29.0111C28.9531 28.8486 29.0344 28.6048 29.1969 28.4422C29.3594 28.2797 29.522 28.1985 29.7658 28.1172C29.9283 28.1172 30.1721 28.1172 30.3346 28.2797L30.0096 28.6048C29.9283 28.5235 29.847 28.5235 29.7658 28.5235C29.6845 28.5235 29.6032 28.6048 29.522 28.6048C29.4407 28.686 29.4407 28.7673 29.4407 28.8486C29.4407 28.9298 29.4407 29.0111 29.522 29.0924C29.6032 29.1736 29.7658 29.1736 29.9283 29.0111C30.2534 28.8486 30.4159 28.7673 30.4971 28.7673C30.7409 28.9298 30.9847 29.0111 31.1473 29.1736Z" fill="white"/>
<path d="M27.8981 32.7496L26.5166 33.481L25.3789 31.3681L26.7604 30.6367L26.9229 30.9618L25.9478 31.4494L26.2728 32.0182L27.0855 31.5306L27.248 31.8557L26.4353 32.3433L26.7604 32.9121L27.7356 32.4245L27.8981 32.7496Z" fill="white"/>
<path d="M25.1355 31.4492L25.4605 33.9684L24.9729 34.1309L23.3477 32.1806L23.8352 32.0181L24.9729 33.5621L24.7291 31.6117L25.1355 31.4492Z" fill="white"/>
<path d="M23.915 34.5373L23.4275 34.6999L22.7773 32.3432L23.1837 32.1807L23.915 34.5373Z" fill="white"/>
<path d="M22.9402 34.8627L22.3714 34.944L21.3149 33.4812L21.64 35.1065L21.1524 35.1878L20.7461 32.7499L21.2337 32.6686L22.2901 34.1313L22.0463 32.5061L22.4526 32.4248L22.9402 34.8627Z" fill="white"/>
<path d="M20.4218 34.293C20.4218 34.6181 20.3405 34.8619 20.178 35.0244C20.0155 35.1869 19.853 35.2682 19.5279 35.3495C19.2841 35.3495 19.0403 35.2682 18.8778 35.1057C18.7153 34.9432 18.634 34.6994 18.634 34.3743L18.5527 32.8303H19.0403L19.1216 34.4556C19.1216 34.6181 19.2028 34.6994 19.2028 34.7806C19.2841 34.8619 19.3654 34.9432 19.5279 34.9432C19.6092 34.9432 19.7717 34.8619 19.7717 34.7806C19.853 34.6994 19.853 34.5368 19.853 34.3743L19.7717 32.749H20.2593L20.4218 34.293Z" fill="white"/>
<path d="M17.7405 35.2686L16.1152 35.0248L16.359 32.5869L16.8466 32.6682L16.6028 34.6998L17.7405 34.8623V35.2686Z" fill="white"/>
<path d="M15.0577 33.8057V32.9931L14.5701 33.7245L15.0577 33.8057ZM15.5453 34.9434L15.0577 34.7809V34.1308L14.3263 33.9683L14.0013 34.5371L13.5137 34.3746L14.8952 32.2617L15.3827 32.4242L15.5453 34.9434Z" fill="white"/>
<path d="M13.0257 34.2937L12.5381 34.0499L12.4568 32.2621L11.8067 33.8061L11.4004 33.5623L12.2943 31.3682L12.8631 31.5307L12.9444 33.3185L13.5133 31.8558L14.0008 32.0183L13.0257 34.2937Z" fill="white"/>
<path d="M11.0751 31.937C11.1564 31.6932 11.2377 31.5307 11.2377 31.2869C11.2377 31.1243 11.1564 30.9618 10.9939 30.8805C10.8313 30.7993 10.6688 30.7993 10.5063 30.8805C10.3438 30.9618 10.1812 31.1243 10.1 31.3681C9.93743 31.6932 9.85617 31.8557 9.85617 32.0995C9.85617 32.262 9.93743 32.4246 10.1 32.5058C10.2625 32.5871 10.425 32.5871 10.5875 32.5058C10.8313 32.3433 10.9939 32.1808 11.0751 31.937ZM11.4815 32.1808C11.3189 32.5058 11.0751 32.7496 10.8313 32.8309C10.5063 32.9934 10.2625 32.9934 9.93743 32.8309C9.61238 32.6684 9.44985 32.4246 9.44985 32.0995C9.36858 31.7745 9.44985 31.5307 9.61238 31.2056C9.77491 30.8805 10.0187 30.6368 10.2625 30.5555C10.5875 30.393 10.8313 30.393 11.1564 30.5555C11.4815 30.718 11.644 30.9618 11.644 31.2869C11.7252 31.6119 11.644 31.8557 11.4815 32.1808Z" fill="white"/>
<path d="M8.63756 31.8553L8.3125 31.6115L9.77525 29.6611L10.1816 29.9049L8.63756 31.8553Z" fill="white"/>
<path d="M9.36991 29.9051L8.96359 29.4988L7.5821 30.9616L7.17578 30.7178L8.55727 29.1738L8.06969 28.7674L8.39474 28.4424L9.69497 29.5801L9.36991 29.9051Z" fill="white"/>
<path d="M6.93192 28.9301L7.41951 28.1987L6.60687 28.5238L6.93192 28.9301ZM6.68813 30.1491L6.36307 29.7427L6.68813 29.2552L6.20055 28.6863L5.6317 28.9301L5.30664 28.5238L7.6633 27.6299L7.98836 28.0362L6.68813 30.1491Z" fill="white"/>
<path d="M5.06229 28.2798L4.73724 27.7922L5.63114 26.2482L4.33092 27.1421L4.00586 26.7358L6.11873 25.4355L6.36252 25.8419L5.46861 27.3859L6.76884 26.492L7.0939 26.8983L5.06229 28.2798Z" fill="white"/>
<path d="M28.4674 30.3117C28.3862 30.2304 28.3049 30.1492 28.2236 30.1492C28.1424 30.1492 28.0611 30.1492 27.9798 30.2304L27.736 30.393L28.1424 30.9618L28.4674 30.718C28.5487 30.6368 28.5487 30.5555 28.5487 30.4742C28.5487 30.4742 28.5487 30.393 28.4674 30.3117ZM28.8737 29.9866C29.0363 30.2304 29.0363 30.4742 28.8737 30.718C29.0363 30.6368 29.1988 30.718 29.2801 30.718C29.3613 30.7993 29.4426 30.8805 29.6864 31.1243C29.7677 31.2056 29.8489 31.2869 29.9302 31.2869L29.5239 31.6932C29.4426 31.6932 29.3613 31.6119 29.3613 31.5307C29.3613 31.5307 29.2801 31.4494 29.2801 31.3681C29.1988 31.2869 29.1988 31.2869 29.1175 31.2056C28.955 31.0431 28.8737 31.0431 28.7112 31.1243L28.3862 31.3681L28.955 32.0995L28.5487 32.3433L27.0859 30.393L27.8173 29.9054C28.2236 29.5803 28.5487 29.5803 28.8737 29.9866Z" fill="white"/>
<path d="M3.27553 25.1923L3.113 24.786L4.41323 24.2171L2.86921 24.2984L2.78795 23.9734L3.92564 22.9982L2.62542 23.4858L2.46289 23.0795L4.73829 22.1855L4.90081 22.7544L3.60059 23.8108L5.30713 23.7296L5.55093 24.2984L3.27553 25.1923Z" fill="white"/>
<path d="M3.11154 21.616L3.84292 21.2097L3.03028 21.1284L3.11154 21.616ZM2.2989 22.6724L2.21763 22.1849L2.78648 21.8598L2.62395 21.1284L1.97384 21.0472L1.89258 20.5596L4.49303 20.8034L4.57429 21.2909L2.2989 22.6724Z" fill="white"/>
<path d="M1.81097 20.1535L1.7297 19.5846L3.35498 18.6907L1.7297 18.8532L1.64844 18.3657L4.08636 18.2031L4.16762 18.6907L2.54234 19.6659L4.16762 19.5034L4.24889 19.9909L1.81097 20.1535Z" fill="white"/>
<path d="M3.11175 15.0337C3.35554 15.1149 3.59934 15.1149 3.76186 15.0337C3.92439 14.9524 4.08692 14.8711 4.16818 14.7086C4.24945 14.5461 4.16818 14.3836 4.00566 14.221C3.84313 14.0585 3.6806 13.9772 3.43681 13.896C3.19302 13.8147 2.94922 13.8147 2.78669 13.8147C2.62417 13.896 2.46164 13.9772 2.38037 14.1398C2.29911 14.3023 2.38037 14.4648 2.5429 14.6274C2.70543 14.8711 2.86796 15.0337 3.11175 15.0337ZM3.03049 15.5213C2.70543 15.44 2.46164 15.2775 2.21785 15.0337C2.05532 14.7899 1.97405 14.4648 2.05532 14.1398C2.13658 13.8147 2.38037 13.5709 2.62417 13.4897C2.86796 13.4084 3.19302 13.4084 3.51807 13.4897C3.84313 13.5709 4.08692 13.7335 4.33071 13.9772C4.49324 14.221 4.57451 14.5461 4.49324 14.8711C4.41198 15.1962 4.16818 15.44 3.92439 15.5213C3.6806 15.6025 3.35554 15.6025 3.03049 15.5213Z" fill="white"/>
<path d="M2.54297 12.596L2.7055 12.1897L3.68067 12.596L4.00572 11.8646L3.03055 11.4583L3.19308 10.9707L5.46848 11.8646L5.30595 12.3522L4.33078 11.9459L4.08699 12.6772L4.98089 13.0836L4.81836 13.4899L2.54297 12.596Z" fill="white"/>
<path d="M4.08647 10.8081C3.92394 10.6456 3.76141 10.4831 3.68015 10.2393C3.59888 9.99547 3.68015 9.75168 3.76141 9.50788C3.92394 9.26409 4.16773 9.10156 4.49279 9.10156C4.81784 9.10156 5.06163 9.18283 5.38669 9.34535C5.71175 9.50788 5.87428 9.75168 5.95554 10.0767C6.0368 10.4018 6.0368 10.6456 5.87428 10.8894C5.71175 11.1332 5.54922 11.2144 5.30543 11.2957C5.06163 11.2957 4.89911 11.2957 4.65531 11.2144L4.89911 10.8081C5.22416 10.9706 5.38669 10.8894 5.54922 10.7268C5.79301 10.5643 5.79301 10.4018 5.63048 10.2393C5.54922 10.0767 5.38669 9.9142 5.1429 9.83294C4.89911 9.67041 4.73658 9.58915 4.57405 9.58915C4.33026 9.58915 4.24899 9.58915 4.16773 9.75168C4.08647 9.83294 4.08647 9.99547 4.16773 10.158C4.24899 10.2393 4.24899 10.3205 4.33026 10.4018L4.08647 10.8081Z" fill="white"/>
<path d="M1.64844 17.7155L1.7297 17.1467L3.35498 16.4966L1.7297 16.4153L1.81097 15.9277L4.24889 16.0903L4.16762 16.6591L2.54234 17.3092L4.16762 17.3905L4.08636 17.8781L1.64844 17.7155Z" fill="white"/>
</g>
<defs>
<clipPath id="clip0_790_36">
<rect width="180.163" height="36" fill="white" transform="translate(0.917969)"/>
</clipPath>
</defs>
</svg>
