<svg width="187" height="28" viewBox="0 0 187 28" fill="none" xmlns="http://www.w3.org/2000/svg">
<path d="M12.3427 19.6632C12.5986 20.296 12.5174 21.1069 12.3925 21.5983C12.1741 22.4707 11.5749 23.3614 9.80222 23.3614C8.1419 23.3614 7.13063 22.4154 7.13063 20.9902V18.3859H0V20.4008C0 26.2367 4.60269 27.9997 9.53818 27.9997C14.2825 27.9997 18.189 26.3901 18.8113 22.0225C19.1317 19.762 18.8976 18.2814 18.7867 17.7348C17.6776 12.2552 7.72045 10.6212 6.97484 7.55585C6.87151 7.10384 6.86314 6.63531 6.95026 6.1799C7.13517 5.33833 7.70802 4.42302 9.34713 4.42302C10.8875 4.42302 11.781 5.36905 11.781 6.79415V8.6227H18.6015V6.64011C18.6015 0.939554 13.4018 0.0488281 9.64409 0.0488281C4.91267 0.0488281 1.04886 1.59067 0.343476 5.86012C0.156232 7.02718 0.125073 8.0715 0.405939 9.38616C1.56071 14.7305 11.005 16.2785 12.3781 19.6634" fill="#0B4DA3"/>
<path d="M28.5782 1.00126L23.6914 26.929H30.7701L34.4177 3.13087H34.5678L38.1153 26.929H45.1566L40.3007 0.995117L28.5782 1.00126ZM68.6643 0.995117L65.4151 20.8269H65.2603L62.0173 0.995117H51.1474L50.5589 27.2341H57.3519L57.516 3.43587H57.6677L62.1579 27.234H68.5201L73.0178 3.43602H73.163L73.332 27.2341H79.9974L79.4092 0.995117H68.6643Z" fill="#0B4DA3"/>
<path d="M98.8367 19.6145C99.0927 20.2472 99.0115 21.0581 98.8868 21.5494C98.6682 22.4217 98.069 23.3125 96.2962 23.3125C94.6359 23.3125 93.6248 22.3664 93.6248 20.9413V18.3862H86.4941V20.4011C86.4941 26.237 91.0968 28 96.0323 28C100.777 28 104.683 26.3904 105.305 22.0228C105.626 19.7623 105.392 18.2817 105.281 17.7351C104.172 12.2556 94.2146 10.6216 93.469 7.55617C93.3657 7.10417 93.3573 6.63563 93.4444 6.18022C93.6293 5.33865 94.2022 4.42335 95.8413 4.42335C97.3816 4.42335 98.275 5.36922 98.275 6.79447V8.31773H105.096V6.59157C105.096 0.890726 99.896 0 96.1382 0C91.4067 0 87.5429 1.54184 86.8375 5.81129C86.6502 6.97835 86.6191 8.02267 86.8999 9.33733C88.0547 14.6817 97.499 16.2297 98.8721 19.6145" fill="#0B4DA3"/>
<path d="M121.09 23.1283C122.938 23.1283 123.506 21.8751 123.637 21.2362C123.693 20.9536 123.699 20.5728 123.699 20.2349V0.99531H130.52V19.7497C130.521 20.3239 130.501 20.8973 130.458 21.4699C129.992 26.3534 126.089 27.9383 121.222 27.9383C116.35 27.9383 112.447 26.3534 111.981 21.4699C111.962 21.2118 111.912 20.2289 111.918 19.7497V0.99531H118.739V20.2288C118.733 20.5728 118.745 20.9536 118.801 21.2362C118.926 21.8751 119.501 23.1283 121.354 23.1283M153.772 0.99531L154.135 21.4372H153.991L147.854 0.99531H137.961V26.9292H144.471L144.11 5.57182H144.253L150.789 26.9292H160.282V0.99531H153.772ZM176.726 22.8579C178.649 22.8579 179.323 21.66 179.441 20.9536C179.498 20.665 179.504 20.2964 179.504 19.9707V15.9454H176.714V12.2841H186.014V19.2994C186.014 19.7909 186.002 20.1472 185.921 21.0194C185.483 25.7864 181.277 27.488 176.559 27.488C171.84 27.488 167.64 25.7864 167.197 21.0193C167.122 20.1472 167.103 19.7908 167.103 19.2994V8.36058C167.103 7.89364 167.166 7.0705 167.216 6.64057C167.811 1.74458 171.853 0.171875 176.584 0.171875C181.314 0.171875 185.463 1.73229 185.952 6.63443C186.039 7.46971 186.014 8.35444 186.014 8.35444V9.23288H179.504V7.76477C179.504 7.76477 179.504 7.15037 179.422 6.76959C179.295 6.19206 178.788 4.86526 176.723 4.86526C174.759 4.86526 174.183 6.12448 174.037 6.76959C173.955 7.11351 173.923 7.58045 173.923 8.00423V19.9646C173.923 20.2964 173.936 20.6649 173.986 20.9598C174.111 21.66 174.785 22.8579 176.707 22.8579" fill="#0B4DA3"/>
</svg>
