<svg width="159" height="32" viewBox="0 0 159 32" fill="none" xmlns="http://www.w3.org/2000/svg">
<path d="M25.171 7.27081C25.1471 3.04095 22.1098 0.0521035 17.7994 0.0189467C12.5593 -0.0236834 0 0.0189467 0 0.0189467C0 0.0189467 0 11.368 0 15.9958C0 20.5477 0 31.1579 0 31.1579H4.62509V4.75563H10.3087V31.1579H14.9719V4.803H20.565C20.565 4.803 20.4601 30.8784 20.565 31.1579H25.2282C25.3188 30.8926 25.2091 14.8827 25.171 7.27081Z" fill="white"/>
<path d="M158.106 30.7538C158.046 27.2982 158.741 23.6707 157.887 20.4287C157.051 17.261 157.471 14.6507 158.111 11.5016C158.111 8.74734 158.111 0.842102 158.111 0.842102H143.186C143.186 0.842102 143.298 21.0139 143.186 30.3126C143.182 30.6609 143.126 30.935 143.186 31.1579H147.817C147.864 30.9489 147.836 30.6981 147.817 30.3776C147.668 27.5443 147.799 24.6925 147.817 21.85C147.831 19.4022 148.742 18.1993 150.623 18.1667C152.434 18.1342 153.601 19.4765 153.629 21.7524C153.667 24.7482 153.653 27.7441 153.629 30.7445C153.629 30.9024 153.611 31.0325 153.629 31.1579H158.097C158.125 31.0371 158.111 30.9071 158.106 30.7538ZM153.587 11.0511C153.354 13.104 150.025 14.8876 148.2 13.9865C147.663 13.7218 147.794 13.2202 147.794 12.7882C147.78 10.6424 147.836 8.49653 147.766 6.35069C147.733 5.31492 148.135 4.96193 149.115 5.07805C149.419 5.1152 149.736 5.08269 150.044 5.08269C153.648 5.06876 153.648 5.06876 153.601 8.52439C153.606 9.36508 153.685 10.2197 153.587 11.0511Z" fill="white"/>
<path d="M71.5573 25.0455C71.5525 23.3235 71.6057 21.5967 71.5573 19.8746C71.446 16.0473 69.2196 13.8049 65.2944 13.4453C60.8901 13.0432 60.8901 13.0432 60.8901 8.7191C60.8901 8.17032 60.9143 7.62153 60.8852 7.07274C60.7933 5.39799 61.6887 4.59373 63.3197 4.52277C64.8492 4.45654 69.1519 4.52277 69.1519 4.52277L69.3213 0.0189237C69.3213 0.0189237 64.22 -0.0236546 62.7728 0.0189237C59.3123 0.123004 56.5438 2.79598 56.4422 6.13602C56.3986 7.54583 56.4325 8.95565 56.4325 10.3655C56.4422 15.3282 58.7508 17.7126 63.8667 17.7788C66.1318 17.8072 67.0513 18.6824 67.0078 20.8681C66.94 24.0804 67.1239 27.2927 67.0078 30.5003C66.9981 30.7605 66.9739 30.9781 67.0078 31.1579H71.5573" fill="white"/>
<path d="M39.5785 4.58135V0H32.2772H27.7891V4.58135V13.2906V17.872V26.5766V31.1579H32.2772H39.5785V26.5766H32.2772V17.872H39.5785V13.2906H32.2772V4.58135H39.5785Z" fill="white"/>
<path d="M54.7351 0H50.6487H46.1899H42.1035V4.58135H46.1899V31.1579H50.6487V4.58135H54.7351V0Z" fill="white"/>
<path d="M56.4223 31.1579H60.6328V22.7368H56.4223V31.1579Z" fill="white"/>
<path d="M106.103 0.179448H101.477C101.477 0.179448 101.487 6.71515 101.477 9.21326C101.463 12.8778 101.019 13.2556 97.3009 13.6806C96.2353 13.8034 95.5806 13.0431 95.5806 13.0431C95.5854 13.0525 95.5758 13.0667 95.5806 13.0761C95.5902 6.9796 95.6045 1.73309 95.5806 1.88893V0H90.9453V31.1532H95.5806V30.9171C95.5997 30.7329 95.5997 30.5157 95.5806 30.2654C95.5758 30.2229 95.5854 30.1804 95.5806 30.1379V21.1843C95.7861 18.9979 96.7657 17.9448 98.6007 17.9259C100.617 17.9071 101.487 19.1443 101.497 22.1005C101.511 24.915 101.477 30.9832 101.511 31.1579H106.065C106.098 30.9785 106.079 22.2563 106.079 20.4429C106.079 18.6296 104.412 17.2365 104.335 15.7726C104.254 14.2378 106.103 12.4339 106.103 10.8755C106.103 9.31715 106.103 0.179448 106.103 0.179448Z" fill="white"/>
<path d="M122.942 0H118.282V24.4017C118.282 24.4017 118.123 27.5298 115.025 27.5298C112.637 27.5298 112.44 24.4017 112.44 24.4017H112.449V0H107.789V24.4017C107.789 24.4017 107.693 32 115.519 32C122.784 32 122.947 24.4017 122.947 24.4017V0H122.942Z" fill="white"/>
<path d="M140.628 0H135.967V24.4017C135.967 24.4017 135.809 27.5298 132.71 27.5298C130.322 27.5298 130.125 24.4017 130.125 24.4017H130.135V0H125.475V24.4017C125.475 24.4017 125.379 32 133.205 32C140.469 32 140.633 24.4017 140.633 24.4017V0H140.628Z" fill="white"/>
<path d="M75.1899 3.34043C73.5715 5.31535 73.2617 10.145 73.2617 10.145V31.1532H77.747V17.9886H83.0923V31.1579H87.5775V0.00831987C87.5775 0.00831987 85.7742 -0.0103998 83.513 0.00831987C80.4474 0.0363994 77.0996 1.0145 75.1899 3.34043ZM77.747 13.4491C77.747 13.4491 77.0395 8.92826 78.5931 6.64913C80.1468 4.37001 83.0969 4.82396 83.0969 4.82396V13.4537H77.747V13.4491Z" fill="white"/>
</svg>
