<svg width="107" height="85" viewBox="0 0 107 85" fill="none" xmlns="http://www.w3.org/2000/svg">
<path d="M11.9336 37.3567V22.4176H22.0146V25.4198H15.973V28.2659H20.6877V31.2021H15.973V34.3604H22.2083V37.3627H11.9336V37.3567Z" fill="white"/>
<path d="M25.0098 37.3501V25.4262H28.5995V26.471H28.7119C29.7054 25.6389 30.8704 25.2198 32.2129 25.2198C33.5258 25.2198 34.4247 25.6702 34.9037 26.5648H34.9924C36.1279 25.6702 37.3757 25.2198 38.7359 25.2198C39.7413 25.2198 40.5101 25.47 41.0364 25.9705C41.5627 26.471 41.823 27.2968 41.823 28.4354V37.3501H38.1031V29.5489C38.1031 29.086 38.0085 28.7607 37.8192 28.5667C37.63 28.3728 37.3107 28.279 36.8553 28.279C36.4177 28.279 35.8913 28.4103 35.2763 28.6731C35.2763 28.7169 35.2822 28.7732 35.2881 28.8357C35.294 28.8983 35.2999 28.9358 35.2999 28.9546V37.3626H31.5742V29.5489C31.5742 29.086 31.4736 28.7607 31.2785 28.5667C31.0833 28.3728 30.764 28.279 30.3264 28.279C29.8296 28.279 29.3032 28.4103 28.7473 28.6731V37.3564H25.0098V37.3501Z" fill="white"/>
<path d="M49.2987 37.3626C47.4795 37.3626 46.0921 36.8529 45.1306 35.8394C44.1692 34.826 43.6914 33.3703 43.6914 31.4724V31.2022C43.6914 29.2797 44.2095 27.7995 45.2458 26.7676C46.282 25.7357 47.6349 25.2198 49.2929 25.2198C51.1121 25.2198 52.4995 25.7173 53.461 26.7185C54.4224 27.7196 54.9002 29.1753 54.9002 31.0855V31.3557C54.9002 33.2966 54.3821 34.783 53.3458 35.8087C52.3096 36.8467 50.9624 37.3626 49.2987 37.3626ZM49.3217 34.7031C49.9319 34.7031 50.3925 34.4636 50.7091 33.9845C51.02 33.5054 51.1754 32.6947 51.1754 31.54V31.1346C51.1754 29.8448 51.0143 28.9787 50.6976 28.5304C50.3752 28.082 49.9032 27.8609 49.2814 27.8609C48.6597 27.8609 48.1876 28.1004 47.8767 28.5795C47.5658 29.0586 47.4104 29.8693 47.4104 31.024V31.454C47.4104 32.7131 47.5716 33.5669 47.8997 34.0214C48.2221 34.4759 48.6942 34.7031 49.3217 34.7031Z" fill="white"/>
<path d="M60.8157 37.3626C59.6234 37.3626 58.7262 37.1217 58.13 36.6456C57.5339 36.1696 57.2329 35.3409 57.2329 34.1655V28.5764H55.834V26.0081H57.2329V23.3516H60.9691V26.0081H63.2416V28.5764H60.9691V33.6248C60.9691 34.0185 61.0577 34.283 61.2406 34.4299C61.4236 34.5769 61.7365 34.6474 62.1909 34.6474C62.5982 34.6474 62.9701 34.6121 63.3065 34.5357V36.9277C62.6986 37.2157 61.8663 37.3626 60.8157 37.3626Z" fill="white"/>
<path d="M65.1758 24.4144V21.4835H69.8461V24.4144H65.1758ZM65.1977 37.3626V25.7245H69.8169V37.3626H65.1977Z" fill="white"/>
<path d="M77.3202 37.3626C75.501 37.3626 74.1135 36.8529 73.1521 35.8394C72.1907 34.826 71.7129 33.3703 71.7129 31.4724V31.2022C71.7129 29.2797 72.231 27.7995 73.2673 26.7676C74.3035 25.7357 75.6564 25.2198 77.3144 25.2198C79.1336 25.2198 80.521 25.7173 81.4824 26.7185C82.4439 27.7196 82.9217 29.1753 82.9217 31.0855V31.3557C82.9217 33.2966 82.4036 34.783 81.3673 35.8087C80.3311 36.8467 78.9782 37.3626 77.3202 37.3626ZM77.3374 34.7031C77.9477 34.7031 78.4082 34.4636 78.7249 33.9845C79.0357 33.5054 79.1912 32.6947 79.1912 31.54V31.1346C79.1912 29.8448 79.03 28.9787 78.7133 28.5304C78.391 28.082 77.9189 27.8609 77.2971 27.8609C76.6754 27.8609 76.2033 28.1004 75.8924 28.5795C75.5816 29.0586 75.4261 29.8693 75.4261 31.024V31.454C75.4261 32.7131 75.5873 33.5669 75.9155 34.0214C76.2379 34.4759 76.7157 34.7031 77.3374 34.7031Z" fill="white"/>
<path d="M84.791 37.3564V25.4263H88.2636V26.4716H88.3723C89.3448 25.6392 90.5062 25.2198 91.8449 25.2198C93.9902 25.2198 95.0657 26.3089 95.0657 28.4871V37.3626H91.4673V29.5699C91.4673 29.0942 91.3643 28.7562 91.1584 28.5622C90.9524 28.3682 90.5977 28.2743 90.0886 28.2743C89.568 28.2743 89.0073 28.4057 88.4181 28.6686V37.3564H84.791Z" fill="white"/>
<path d="M16.0921 61.6483C13.8379 61.6483 12.1488 61.3452 11.0124 60.7328V57.5966C12.6084 58.1781 14.1298 58.4688 15.5891 58.4688C17.185 58.4688 17.9799 57.9863 17.9799 57.0275C17.9799 56.5821 17.8557 56.2666 17.6011 56.0749C17.3465 55.8831 16.8435 55.7099 16.0983 55.5615L14.9495 55.3326C13.6143 55.0913 12.627 54.615 11.9749 53.916C11.3229 53.217 11 52.0974 11 50.5756C11 49.0787 11.4782 47.9033 12.4345 47.0497C13.3908 46.1961 14.8191 45.7692 16.7193 45.7692C18.6319 45.7692 20.1595 46.0352 21.2959 46.5734V49.6663C19.8553 49.1776 18.4705 48.9364 17.1353 48.9364C15.7257 48.9364 15.0178 49.3818 15.0178 50.2664C15.0178 50.6622 15.1482 50.9592 15.409 51.1571C15.6698 51.3551 16.1418 51.5221 16.8311 51.6582L17.9799 51.8623C19.433 52.1345 20.5073 52.6232 21.1842 53.316C21.8672 54.0088 22.2088 55.0975 22.2088 56.5759C22.2088 58.2276 21.6872 59.4833 20.6439 60.3555C19.6007 61.2277 18.0792 61.6483 16.0921 61.6483Z" fill="white"/>
<path d="M29.0079 61.6484C27.0813 61.6484 25.6241 61.1506 24.6303 60.1612C23.6364 59.1657 23.1426 57.7093 23.1426 55.7797V55.5093C23.1426 53.5552 23.6791 52.0619 24.7461 51.0418C25.8131 50.0155 27.2886 49.5055 29.1664 49.5055C30.5932 49.5055 31.6784 49.7021 32.4162 50.0954V52.8915C31.587 52.5719 30.7395 52.4122 29.8676 52.4122C29.0262 52.4122 28.3616 52.6457 27.8678 53.1066C27.38 53.5675 27.1361 54.2803 27.1361 55.2328V55.5954C27.1361 56.7015 27.3556 57.5004 27.7885 57.992C28.2275 58.4836 28.9348 58.7294 29.9103 58.7294C30.709 58.7294 31.5626 58.5635 32.4832 58.2316V60.8495C31.6723 61.3841 30.5139 61.6484 29.0079 61.6484Z" fill="white"/>
<path d="M34.3516 48.5288V45.7692H38.0878V48.5288H34.3516ZM34.3691 60.7143V49.7565H38.0645V60.7143H34.3691Z" fill="white"/>
<path d="M46.1637 61.6484C42.0267 61.6484 39.9551 59.6635 39.9551 55.6875V55.3987C39.9551 53.592 40.473 52.1602 41.5211 51.0971C42.5631 50.034 43.9688 49.5055 45.7321 49.5055C47.6496 49.5055 49.0306 50.0155 49.8876 51.0295C50.7385 52.0435 51.1639 53.5552 51.1639 55.5585V56.5602H43.901C44.0058 57.4573 44.3202 58.0719 44.8381 58.416C45.356 58.7601 46.1329 58.926 47.1687 58.926C48.3278 58.926 49.4992 58.6925 50.683 58.2193V60.6098C49.493 61.3042 47.9887 61.6484 46.1637 61.6484ZM45.7259 52.0496C44.6285 52.0496 44.0119 52.8239 43.8763 54.3725H47.4338C47.4338 53.5367 47.2981 52.9406 47.0207 52.5842C46.7556 52.2278 46.324 52.0496 45.7259 52.0496Z" fill="white"/>
<path d="M53.0332 60.7085V49.6962H56.5058V50.661H56.6145C57.587 49.8926 58.7484 49.5055 60.0871 49.5055C62.2324 49.5055 63.3079 50.5108 63.3079 52.5215V60.7143H59.7095V53.5268C59.7095 53.0877 59.6065 52.7757 59.4006 52.5966C59.1946 52.4175 58.8399 52.3308 58.3307 52.3308C57.8101 52.3308 57.2495 52.4521 56.6602 52.6948V60.7143H53.0332V60.7085Z" fill="white"/>
<path d="M82.076 61.6484C78.2837 61.6484 76.3848 59.6635 76.3848 55.6875V55.3987C76.3848 53.592 76.8595 52.1602 77.8203 51.0971C78.7754 50.034 80.064 49.5055 81.6804 49.5055C83.438 49.5055 84.704 50.0155 85.4896 51.0295C86.2695 52.0435 86.6595 53.5552 86.6595 55.5585V56.5602H80.0075C80.1036 57.4573 80.3918 58.0719 80.8665 58.416C81.3413 58.7601 82.0534 58.926 83.0029 58.926C84.0654 58.926 85.1392 58.6925 86.2243 58.2193V60.6098C85.1279 61.3042 83.7489 61.6484 82.076 61.6484ZM81.6747 52.0496C80.6687 52.0496 80.1036 52.8239 79.9792 54.3725H83.2402C83.2402 53.5367 83.1159 52.9406 82.8616 52.5842C82.6186 52.2278 82.2173 52.0496 81.6747 52.0496Z" fill="white"/>
<path d="M18.6762 85C16.2196 85 14.3245 84.4066 12.9972 83.214C11.6636 82.0214 11 80.218 11 77.8096V77.3151C11 76.0353 11.1978 74.9241 11.5998 73.9643C12.0018 73.0044 12.5633 72.2539 13.2907 71.6896C14.0118 71.1312 14.8349 70.7181 15.7602 70.4505C16.679 70.1829 17.7063 70.0549 18.8421 70.0549C20.6862 70.0549 22.0645 70.2644 22.977 70.6774V73.6269C21.9688 73.2836 20.8904 73.1091 19.7418 73.1091C17.081 73.1091 15.7474 74.418 15.7474 77.0301V77.6758C15.7474 79.1127 16.0537 80.1831 16.6599 80.887C17.266 81.591 18.2806 81.94 19.6972 81.94C20.9223 81.94 22.0772 81.7364 23.1429 81.335V84.2204C21.8986 84.744 20.4118 85 18.6762 85Z" fill="white"/>
<path d="M30.2848 85C26.1478 85 24.0762 83.1687 24.0762 79.5005V79.2283C24.0762 77.5615 24.5941 76.2405 25.6422 75.2596C26.6842 74.2788 28.0899 73.7912 29.8532 73.7912C31.7707 73.7912 33.1517 74.2618 34.0087 75.1973C34.8595 76.1327 35.285 77.5275 35.285 79.3758V80.2999H28.0282C28.133 81.1277 28.4475 81.6946 28.9654 82.0121C29.4833 82.3296 30.2601 82.4827 31.2959 82.4827C32.455 82.4827 33.6265 82.2672 34.8102 81.8307V84.0362C33.6203 84.6768 32.1098 85 30.2848 85ZM29.8532 76.1441C28.7557 76.1441 28.1392 76.8585 28.0036 78.2872H31.561C31.561 77.5161 31.4254 76.9662 31.1479 76.6373C30.8767 76.3085 30.4451 76.1441 29.8532 76.1441Z" fill="white"/>
<path d="M37.1523 84.9942V73.9819H40.6249V74.9467H40.7336C41.7062 74.1783 42.8675 73.7912 44.2062 73.7912C46.3515 73.7912 47.4271 74.7965 47.4271 76.8072V85H43.8286V77.8067C43.8286 77.3676 43.7257 77.0556 43.5197 76.8765C43.3137 76.6974 42.9591 76.6107 42.4499 76.6107C41.9293 76.6107 41.3686 76.7321 40.7794 76.9747V84.9942H37.1523Z" fill="white"/>
<path d="M54.2786 85C53.0863 85 52.1891 84.759 51.5929 84.283C50.9968 83.807 50.6958 82.9783 50.6958 81.8029V76.2137H49.2969V73.6455H50.6958V70.989H54.432V73.6455H56.7045V76.2137H54.432V81.2622C54.432 81.6559 54.5206 81.9204 54.7035 82.0673C54.8865 82.2143 55.1993 82.2848 55.6538 82.2848C56.0611 82.2848 56.433 82.2495 56.7694 82.1731V84.5651C56.1555 84.8531 55.3292 85 54.2786 85Z" fill="white"/>
<path d="M63.9117 85C59.7747 85 57.7031 83.1687 57.7031 79.5005V79.2283C57.7031 77.5615 58.221 76.2405 59.2692 75.2596C60.3111 74.2788 61.7168 73.7912 63.4802 73.7912C65.3976 73.7912 66.7787 74.2618 67.6357 75.1973C68.4865 76.1327 68.9119 77.5275 68.9119 79.3758V80.2999H61.6552C61.76 81.1277 62.0744 81.6946 62.5923 82.0121C63.1102 82.3296 63.8871 82.4827 64.9229 82.4827C66.082 82.4827 67.2534 82.2672 68.4372 81.8307V84.0362C67.2411 84.6768 65.7367 85 63.9117 85ZM63.4802 76.1441C62.3827 76.1441 61.7662 76.8585 61.6305 78.2872H65.188C65.188 77.5161 65.0523 76.9662 64.7749 76.6373C64.5036 76.3085 64.072 76.1441 63.4802 76.1441Z" fill="white"/>
<path d="M70.7793 85V73.9018H74.5248V75.2352H74.6421C74.9629 74.8044 75.3825 74.455 75.9008 74.1871C76.4192 73.9193 76.9745 73.7912 77.5669 73.7912C77.8384 73.7912 78.0667 73.8203 78.2518 73.8785V77.1102C77.752 77.0228 77.4126 76.9821 77.246 76.9821C76.2711 76.9821 75.4195 77.1567 74.6853 77.5003V85H70.7793Z" fill="white"/>
<path d="M7.48736 30.1818C7.48736 30.1818 -3.83768 26.3094 2.82306 14.7876C9.4838 3.26583 44.1779 2.7654 56.3942 4.09988C68.6105 5.43435 113.75 15.1749 103.257 37.1044C103.257 37.1044 99.2583 42.6925 91.9321 43.2644C84.6058 43.8423 71.2665 45.3913 69.1096 52.0458C66.9528 58.7003 67.4757 63.5437 71.0467 65.3846L73.0075 61.131C73.0075 61.131 66.7864 62.0425 68.2303 55.3522C69.6741 48.6619 79.5791 47.0594 84.4632 47.0594C99.9772 46.6066 102.461 38.0457 102.461 38.0457C114.315 22.2345 97.9333 6.59607 61.6349 1.419C25.3365 -3.75806 7.48736 6.2684 2.82306 14.7876C-1.84124 23.3068 9.31744 27.3103 9.31744 27.3103L7.48736 30.1818Z" fill="white"/>
</svg>
