<svg width="26" height="27" viewBox="0 0 26 27" fill="none" xmlns="http://www.w3.org/2000/svg">
<path d="M25.0213 4.90206L25.7393 0L20.6819 0.838873L22.1698 2.23009L13.8535 10.2598C8.64421 4.76743 1.90904 5.72713 1.90904 5.72713C1.89524 5.74094 1.89524 6.28983 1.90214 6.73516H0V22.6979C3.16218 22.3665 5.73749 22.8395 7.72248 23.5644V23.5852H7.78117C11.0573 24.7969 12.7074 26.6818 12.7074 26.6818C18.8523 21.8971 24.0098 22.7532 24.0098 22.7532V6.75933H22.2285V20.7785C21.5967 20.782 20.9891 20.8269 20.4126 20.8994V10.8916H18.0306V21.4C17.0606 21.6899 16.2079 22.0489 15.4795 22.4218V14.8546H13.0975V23.9545C12.6729 24.2963 12.4519 24.5242 12.4519 24.5242C11.6683 23.775 10.8847 23.1675 10.1114 22.6703V12.8075H7.72939V21.4586C5.65119 20.6612 3.77666 20.5852 2.39235 20.7164V7.23227C9.28286 6.38304 14.033 12.6901 14.033 12.6901L14.14 12.5866L14.147 12.5935L15.0894 11.6821L23.5506 3.51084L25.0282 4.89172L25.0213 4.90206Z" fill="white"/>
</svg>
