<svg width="154" height="44" viewBox="0 0 154 44" fill="none" xmlns="http://www.w3.org/2000/svg">
<g clip-path="url(#clip0_790_10)">
<path d="M22.1788 23.3085C32.2275 21.2869 37.8761 26.995 40.7896 32.1085C42.3356 29.0761 43.2275 25.6274 43.2275 22.0004C43.2275 20.5139 43.1086 19.0869 42.8113 17.7193C20.514 13.795 13.4383 31.0977 11.2383 41.2652C14.3302 42.9896 17.8383 44.0004 21.5842 44.0004C27.5896 44.0004 33.0004 41.5031 36.9248 37.5193C32.5248 23.6058 22.1788 23.3085 22.1788 23.3085Z" fill="#DA3B15"/>
<path d="M35.5568 5.23243C31.6919 12.1297 26.2216 15.3405 26.2216 15.3405C29.2541 11.5946 30.7405 6.36216 31.5135 2.43784C28.5405 0.891892 25.1514 0 21.5838 0C13.973 0 7.31351 3.98378 3.44865 10.0486C6.6 12.7838 13.6162 17.3027 25.1514 16.1135C25.1514 16.1135 12.8432 18.3135 1.07027 15.1622C0.356757 17.3027 0 19.6216 0 22C0 27.7081 2.14054 32.9405 5.70811 36.8649C11.9514 15.6973 36.2703 14.3892 41.8595 14.3892C40.5514 10.8216 38.3514 7.67027 35.5568 5.23243ZM20.8703 14.8649C18.8486 14.8649 17.2432 13.2595 17.2432 11.2378C17.2432 9.21622 18.8486 7.61081 20.8703 7.61081C22.8919 7.61081 24.4973 9.21622 24.4973 11.2378C24.4973 13.2595 22.8919 14.8649 20.8703 14.8649Z" fill="#DA3B15"/>
<path d="M142.345 9.87006C142.345 11.7728 142.88 13.4376 143.891 14.7457C144.902 16.1133 146.983 16.7674 148.291 17.0647L146.686 18.4917C145.616 18.4322 143.713 18.0755 142.643 17.243C141.572 16.4106 140.918 15.5782 140.68 14.6268C140.443 15.5187 139.789 16.4106 138.718 17.1836C137.648 18.016 135.864 18.3133 134.853 18.3728L133.248 16.9457C134.616 16.7079 136.459 16.0538 137.529 14.6863C138.54 13.3187 139.075 11.7133 139.075 9.8106V7.49168C139.075 7.07546 139.075 6.00519 139.075 5.94573H142.405C142.405 5.94573 142.405 7.07546 142.405 7.49168V9.87006H142.345ZM148.708 5.64844H151.978C151.918 5.64844 151.918 25.5674 151.978 25.6268H148.708C148.708 25.5674 148.708 5.64844 148.708 5.64844Z" fill="#231815"/>
<path d="M80.2111 7.96727H74.4435V6.12402H89.3678V7.96727H83.6003V8.08619C83.6003 9.51321 84.3732 10.8213 85.9192 11.8916C87.4651 13.0213 89.0705 13.5565 90.7354 13.5565L89.0111 15.1024C87.6435 15.1024 86.3948 14.6267 84.8489 13.9727C83.3624 13.2592 82.3516 12.4862 81.8759 11.5348C81.4002 12.4862 80.4489 13.3186 78.9624 13.9727C77.4759 14.6267 75.9894 14.9835 74.6219 14.9835L73.0759 13.5565C74.7408 13.5565 76.3462 12.9619 77.9516 11.8916C79.4976 10.8213 80.2705 9.51321 80.2705 8.02673V7.96727H80.2111ZM80.2111 18.4321H72.4219V16.5889H89.903C90.2597 16.5889 91.2705 16.5889 91.2705 16.5889V18.4321H83.4813V25.3294H80.2111C80.2705 25.3294 80.2111 18.4321 80.2111 18.4321Z" fill="#231815"/>
<path d="M122.725 15.3997C123.438 15.1024 124.092 14.6862 124.568 14.151H128.789V16.4699H132.06V5.64833H128.789V7.55103H124.746C124.27 6.95643 123.616 6.48076 122.843 6.124C122.07 5.76725 121.238 5.58887 120.406 5.58887C118.86 5.58887 117.552 6.06454 116.481 7.07535C115.411 8.08616 114.816 9.27535 114.816 10.7024C114.816 12.1294 115.352 13.3186 116.481 14.3294C117.552 15.3402 118.86 15.8159 120.406 15.8159C121.238 15.8754 122.011 15.697 122.725 15.3997ZM125.995 10.0483C125.935 9.81049 125.876 9.57265 125.816 9.39427H128.789V12.3672H125.757C125.876 12.1294 125.935 11.8916 125.995 11.5943C126.054 11.3564 126.054 11.0591 126.054 10.7618C126.054 10.524 125.995 10.2862 125.995 10.0483ZM118.8 13.0808C118.325 12.4267 118.146 11.6537 118.146 10.7618C118.146 9.86995 118.384 9.09698 118.8 8.44292C119.276 7.78887 119.811 7.49157 120.406 7.49157C121.06 7.49157 121.595 7.78887 122.011 8.44292C122.487 9.09698 122.665 9.86995 122.665 10.7618C122.665 11.6537 122.427 12.4267 122.011 13.0808C121.535 13.7348 121 14.0321 120.406 14.0321C119.811 14.0321 119.276 13.6754 118.8 13.0808Z" fill="#231815"/>
<path d="M132.059 20.0977C131.999 18.9085 131.048 18.0166 129.859 18.0166H117.432V19.8598H128.729C128.729 19.8598 128.729 25.568 128.729 25.6274H131.999C132.059 25.568 132.059 22.3571 132.059 20.0977Z" fill="#231815"/>
<path d="M101.379 7.9077V10.3455C101.379 10.9401 101.379 11.4753 101.32 12.0699C101.26 12.605 101.141 13.1401 100.963 13.5563H103.817C104.055 13.3185 104.233 12.8428 104.412 12.1888C104.59 11.5347 104.65 10.8807 104.65 10.2861V8.26445C104.65 7.07526 103.639 6.06445 102.45 6.06445H93.709V7.9077C93.7684 7.9077 101.379 7.9077 101.379 7.9077Z" fill="#231815"/>
<path d="M109.643 9.57265C109.643 9.57265 109.583 5.58887 109.643 5.58887H106.373C106.432 5.58887 106.373 13.9132 106.373 13.9132C105.956 14.0321 105.421 14.2105 104.827 14.2699C104.232 14.3889 103.518 14.4483 102.686 14.4483H99.1779V10.1078H96.086V14.4483C96.086 14.4483 93.0536 14.4483 92.9941 14.4483V16.2916H102.567C103.281 16.2916 103.994 16.2321 104.648 16.0537C105.302 15.8754 105.897 15.697 106.313 15.5186V17.3024H109.583V11.4159H112.854V9.57265C112.913 9.63211 109.643 9.57265 109.643 9.57265Z" fill="#231815"/>
<path d="M107.919 18.3734C106.73 17.4815 105.303 17.0059 103.638 17.0059C101.973 17.0059 100.546 17.4815 99.4166 18.3734C98.2274 19.2653 97.6328 20.395 97.6328 21.7032C97.6328 23.0113 98.2274 24.0815 99.4166 24.9734C100.606 25.8653 102.033 26.341 103.638 26.341C105.303 26.341 106.73 25.8653 107.919 24.9734C109.108 24.0815 109.703 22.9518 109.703 21.7032C109.703 20.395 109.108 19.3248 107.919 18.3734ZM105.125 23.6653C104.59 24.2005 103.936 24.4978 103.222 24.4978C102.449 24.4978 101.854 24.2005 101.319 23.6653C100.784 23.1302 100.546 22.4761 100.546 21.7626C100.546 21.0491 100.784 20.395 101.319 19.8005C101.854 19.2653 102.508 18.968 103.222 18.968C103.995 18.968 104.59 19.2653 105.125 19.8005C105.66 20.3356 105.898 20.9896 105.898 21.7626C105.898 22.4761 105.6 23.0707 105.125 23.6653Z" fill="#231815"/>
<path d="M61.2441 7.73007V10.1679C61.2441 10.7625 61.2441 11.2976 61.1846 11.8922C61.1251 12.4274 61.0062 12.9625 60.8279 13.3787H63.6819C63.9197 13.1409 64.0981 12.6652 64.2765 12.0112C64.4549 11.3571 64.5143 10.703 64.5143 10.1085V8.08683C64.5143 6.89764 63.5035 5.94629 62.3143 5.94629H53.8711V7.73007H61.2441Z" fill="#231815"/>
<path d="M69.5085 9.39492C69.5085 9.39492 69.449 5.41113 69.5085 5.41113H66.2382V13.7355C65.822 13.8544 65.2868 13.9733 64.6922 14.0922C64.0977 14.2111 63.3841 14.2706 62.5517 14.2706H59.0436V9.93005H55.8922V14.2706H53.0977V16.1138H62.4328C63.1463 16.1138 63.8598 16.0544 64.5139 15.876C65.1679 15.6976 65.7625 15.5192 66.1787 15.3409V17.1246H69.449V11.2382H72.7193V9.39492C72.7787 9.45438 69.5085 9.39492 69.5085 9.39492Z" fill="#231815"/>
<path d="M67.428 18.2543C66.2388 17.3624 64.8118 16.8867 63.1469 16.8867C61.482 16.8867 60.055 17.3624 58.8658 18.2543C57.6766 19.1462 57.082 20.2759 57.082 21.584C57.082 22.8921 57.6766 23.9624 58.8658 24.8543C60.055 25.7462 61.482 26.2219 63.1469 26.2219C64.8118 26.2219 66.2388 25.7462 67.428 24.8543C68.6172 23.9624 69.2118 22.8327 69.2118 21.584C69.1523 20.2164 68.5577 19.1462 67.428 18.2543ZM64.9901 23.4867C64.455 24.0219 63.8009 24.3192 63.0874 24.3192C62.3145 24.3192 61.7199 24.0219 61.1847 23.4867C60.6496 22.9516 60.4118 22.2975 60.4118 21.584C60.4118 20.8705 60.6496 20.2164 61.1847 19.6219C61.7199 19.0867 62.3739 18.7894 63.0874 18.7894C63.8604 18.7894 64.455 19.0867 64.9901 19.6219C65.5253 20.157 65.7631 20.811 65.7631 21.584C65.7631 22.2975 65.5253 22.8921 64.9901 23.4867Z" fill="#231815"/>
<path d="M65.5845 39.1241L63.2656 29.1943H65.2872L66.7737 35.9727L68.617 29.1943H70.9954L72.7197 36.0916L74.2062 29.1943H76.2278L73.8494 39.1241H71.7089L69.7467 31.6916L67.7845 39.1241H65.5845Z" fill="#231815"/>
<path d="M78.724 35.2594L80.0916 31.5729L81.4592 35.2594H78.724ZM81.2808 29.3135H79.1403L75.2754 39.2432H77.4159L78.2484 36.9837H82.2322L83.0646 39.2432H85.2051L81.2808 29.3135Z" fill="#231815"/>
<path d="M86.0371 39.1837V29.3135H87.9993L92.0425 35.9135V29.3135H93.9452V39.1837H91.9236L87.9398 32.7027V39.1837H86.0371Z" fill="#231815"/>
<path d="M99.8911 35.5566V33.8917H104.232V37.8755C103.815 38.2917 103.221 38.6485 102.388 38.9458C101.615 39.2431 100.783 39.4215 99.9505 39.4215C98.9397 39.4215 97.9884 39.1836 97.2154 38.7674C96.4424 38.3512 95.8478 37.6971 95.4911 36.9242C95.0749 36.0917 94.8965 35.2593 94.8965 34.308C94.8965 33.2971 95.1343 32.3458 95.5505 31.5728C95.9667 30.7404 96.6208 30.1458 97.4532 29.7296C98.1073 29.3728 98.8803 29.2539 99.8316 29.2539C101.08 29.2539 102.032 29.4917 102.686 30.0269C103.399 30.562 103.815 31.2755 103.994 32.1674L102.032 32.5242C101.913 32.0485 101.615 31.6323 101.259 31.3944C100.902 31.0971 100.367 30.9782 99.8316 30.9782C98.9397 30.9782 98.2857 31.2755 97.7505 31.8107C97.2154 32.3458 96.9776 33.1782 96.9776 34.308C96.9776 35.4971 97.2154 36.389 97.7505 36.9836C98.2857 37.5782 98.9397 37.8755 99.7722 37.8755C100.188 37.8755 100.605 37.8161 101.021 37.6377C101.437 37.4593 101.794 37.2809 102.091 37.0431V35.7944H99.8911V35.5566Z" fill="#231815"/>
<path d="M58.5072 35.5566V33.8917H62.7883V37.8755C62.372 38.2917 61.7774 38.6485 60.945 38.9458C60.172 39.2431 59.3396 39.4215 58.5072 39.4215C57.4964 39.4215 56.545 39.1836 55.772 38.7674C54.9991 38.3512 54.4045 37.6971 54.0477 36.9242C53.6315 36.0917 53.4531 35.2593 53.4531 34.308C53.4531 33.2971 53.691 32.3458 54.1072 31.5728C54.5234 30.7404 55.1774 30.1458 56.0099 29.7296C56.6639 29.3728 57.4369 29.2539 58.3883 29.2539C59.6369 29.2539 60.5883 29.4917 61.2423 30.0269C61.9558 30.562 62.372 31.2755 62.5504 32.1674L60.5883 32.5242C60.4693 32.0485 60.172 31.6323 59.8153 31.3944C59.4585 31.0971 58.9234 30.9782 58.3883 30.9782C57.4964 30.9782 56.8423 31.2755 56.3072 31.8107C55.772 32.3458 55.5342 33.1782 55.5342 34.308C55.5342 35.4971 55.772 36.389 56.3072 36.9836C56.8423 37.5782 57.4964 37.8755 58.3288 37.8755C58.745 37.8755 59.1612 37.8161 59.5774 37.6377C59.9937 37.4593 60.3504 37.2809 60.6477 37.0431V35.7944H58.5072V35.5566Z" fill="#231815"/>
<path d="M109.466 29.3135H111.487V35.6162C111.487 36.4486 111.428 37.0432 111.249 37.5189C111.071 38.1135 110.714 38.5297 110.179 38.8865C109.644 39.2432 108.99 39.4216 108.157 39.4216C107.206 39.4216 106.433 39.1243 105.898 38.5892C105.363 38.054 105.125 37.2216 105.125 36.1513L107.028 35.9135C107.028 36.5081 107.147 36.9243 107.266 37.1621C107.503 37.5189 107.801 37.6973 108.217 37.6973C108.633 37.6973 108.99 37.5783 109.168 37.3405C109.347 37.1027 109.466 36.5675 109.466 35.7351V29.3135Z" fill="#231815"/>
<path d="M113.33 29.3135H115.352V34.6648C115.352 35.4973 115.352 36.0919 115.411 36.3297C115.471 36.7459 115.708 37.0432 116.006 37.281C116.303 37.5189 116.779 37.6378 117.314 37.6378C117.849 37.6378 118.325 37.5189 118.563 37.281C118.86 37.0432 119.038 36.7459 119.098 36.4486C119.157 36.0919 119.157 35.5567 119.157 34.7837V29.3135H121.179V34.4865C121.179 35.6756 121.119 36.5081 121 36.9837C120.881 37.4594 120.703 37.8756 120.406 38.2324C120.108 38.5892 119.752 38.827 119.217 39.0648C118.741 39.2432 118.087 39.3621 117.314 39.3621C116.363 39.3621 115.649 39.2432 115.173 39.0054C114.698 38.7675 114.281 38.5297 114.044 38.1729C113.746 37.8162 113.568 37.4594 113.508 37.1027C113.39 36.5081 113.33 35.6756 113.33 34.6054V29.3135Z" fill="#231815"/>
<path d="M132.714 38.47C132 38.9457 131.108 39.1835 130.157 39.1835C129.443 39.1835 128.789 39.0646 128.135 38.7673C127.541 38.47 126.946 38.0538 126.47 37.5187C126.054 37.043 125.757 36.5673 125.579 35.9727C125.341 35.3781 125.281 34.7835 125.281 34.1295C125.281 33.4754 125.4 32.8214 125.638 32.2268C125.876 31.6322 126.233 31.097 126.768 30.5619C127.243 30.0862 127.719 29.7889 128.314 29.5511C128.908 29.3133 129.503 29.1943 130.157 29.1943C131.168 29.1943 132 29.4322 132.773 29.9673C133.546 30.5024 134.141 31.216 134.616 32.2268H132.595C132.297 31.8106 131.941 31.4538 131.524 31.2754C131.108 31.097 130.692 30.9781 130.157 30.9781C129.741 30.9781 129.324 31.0376 129.027 31.216C128.67 31.3943 128.373 31.5727 128.076 31.87C127.779 32.1673 127.541 32.5241 127.362 32.9403C127.184 33.3565 127.124 33.7727 127.124 34.1889C127.124 34.6646 127.184 35.0808 127.362 35.4376C127.541 35.8538 127.719 36.1511 128.016 36.4484C128.314 36.7457 128.611 36.9835 129.027 37.1619C129.384 37.3403 129.8 37.3997 130.216 37.3997C130.692 37.3997 131.168 37.2808 131.524 37.1024C131.941 36.9241 132.238 36.6268 132.535 36.2106H134.616C134.141 37.2214 133.487 37.9349 132.714 38.47Z" fill="#231815" stroke="#231815" stroke-width="0.25"/>
<path d="M136.34 39.0056V29.4326H138.124V39.0056H136.34Z" fill="#231815" stroke="#231815" stroke-width="0.25"/>
<path d="M141.514 39.0056V31.0975H139.611V29.4326H145.141V31.0975H143.238V39.0056H141.514Z" fill="#231815" stroke="#231815" stroke-width="0.25"/>
<path d="M150.492 39.0056H148.768V35.4975L145.795 29.4326H147.757L149.66 33.5353L151.503 29.4326H153.465L150.492 35.5569V39.0056Z" fill="#231815" stroke="#231815" stroke-width="0.25"/>
</g>
<defs>
<clipPath id="clip0_790_10">
<rect width="153.584" height="44" fill="white"/>
</clipPath>
</defs>
</svg>
