<svg width="190" height="27" viewBox="0 0 190 27" fill="none" xmlns="http://www.w3.org/2000/svg">
<path d="M25.0234 4.88672L23.5508 3.51074L15.0898 11.6816L14.1465 12.5938L14.1396 12.5869L14.0332 12.6904C14.0332 12.6904 9.28298 6.38334 2.39258 7.23242V20.7168C3.77688 20.5856 5.65139 20.6616 7.72949 21.459V12.8076H10.1113V22.6699C10.8846 23.167 11.6685 23.7753 12.4521 24.5244C12.4521 24.5244 12.673 24.2959 13.0977 23.9541V14.8545H15.4795V22.4219C16.2078 22.0491 17.0604 21.6903 18.0303 21.4004V10.8916H20.4131V20.8994C20.9895 20.827 21.5969 20.7818 22.2285 20.7783V6.75977H24.0098V22.7529C23.99 22.7497 18.8401 21.9061 12.707 26.6816C12.6852 26.6568 11.0355 24.7886 7.78125 23.585H7.72266V23.5645C5.73766 22.8395 3.16218 22.3668 0 22.6982V6.73535H1.90234C1.89547 6.29172 1.89553 5.74535 1.90918 5.72754C1.93526 5.72385 8.65433 4.77808 13.8535 10.2598L22.1699 2.23047L20.6816 0.838867L25.7393 0L25.0234 4.88672ZM172.193 17.2539H165.476V22.332H162.104V17.2539H155.586V14.0605H172.193V17.2539ZM46.877 21.9277H43.6182V4.66699H46.877V21.9277ZM53.4395 15.3447H61.5518V14.2197H64.7451V21.9277H50.2705V14.2197H53.4395V15.3447ZM82.0059 10.9814H83.9395V14.2852H82.0059V21.9277H78.7715V4.66699H82.0059V10.9814ZM100.278 21.9277H97.0195V4.66699H100.278V21.9277ZM118.074 18.8691H106.613V19.5664H118.254V21.9277H103.399V16.7812H114.86V16.084H103.375V13.7227H118.074V18.8691ZM124.547 18.9629H136.167V21.9277H121.268V16.626H124.547V18.9629ZM142.547 18.873H153.963V21.9277H139.267V15.8838H142.547V18.873ZM183.341 18.1309H189.993V21.3242H173.385V18.1309H180.062V14.3096H183.341V18.1309ZM92.1416 6.73828H95.7393V9.88379H92.0967C92.0207 11.2023 91.9107 12.2517 91.7588 13.0283L96.4326 18.8936L94.0264 21.1201L90.6328 16.6494C89.9596 18.0717 89.1073 19.1701 88.082 19.9434C87.0569 20.7165 85.9213 21.1067 84.6787 21.124V17.7754C85.4413 17.6993 86.128 17.3229 86.7354 16.6396C87.3429 15.9561 87.8265 15.0339 88.1855 13.874C88.5445 12.7142 88.7619 11.3818 88.8379 9.88379H85.041V6.73828H88.8174V4.60547H92.1416V6.73828ZM41.1045 9.75195C41.1045 12.058 40.7148 14.0714 39.9346 15.7871V15.7832C39.1544 17.4989 38.0531 18.8175 36.6309 19.7393C35.2086 20.661 33.5447 21.1201 31.6426 21.1201V17.8857C33.6069 17.8719 35.1155 17.1431 36.1719 15.707C37.2281 14.2675 37.7568 12.2822 37.7568 9.75195V8.17773H31.6426V5.07812H41.1045V9.75195ZM76.3408 9.74902C76.3408 12.0723 75.9611 14.0886 75.2051 15.7939C74.4491 17.5026 73.3716 18.8176 71.9805 19.7393C70.586 20.6608 68.9466 21.12 67.0586 21.1201V17.8857C69.0052 17.8718 70.4895 17.1505 71.5078 15.7285C72.5262 14.3062 73.0371 12.3139 73.0371 9.74902V8.1748H67.0586V5.0752H76.3408V9.74902ZM53.4395 19.2324H61.5518V17.9961H53.4395V19.2324ZM135.943 17.5469H132.753V14.917H131.158V12.0615H132.753V10.6016H131.158V7.74707H132.753V4.66699H135.943V17.5469ZM153.742 17.458H150.552V13.6602H148.55L148.754 10.6504H150.552V9.00684H148.754L148.55 5.99609H150.552V4.6709H153.742V17.458ZM125.493 8.96191C126.915 8.96191 128.096 9.27236 129.031 9.89355C129.967 10.5149 130.437 11.3959 130.437 12.5352C130.436 13.6742 129.967 14.5334 129.031 15.165C128.096 15.7933 126.915 16.1074 125.493 16.1074C124.071 16.1074 122.891 15.7933 121.955 15.165C121.02 14.5368 120.55 13.6604 120.55 12.5352C120.55 11.4098 121.016 10.5149 121.955 9.89355C122.891 9.27234 124.071 8.96192 125.493 8.96191ZM183.931 5.14062C183.765 6.38322 183.482 7.48475 183.078 8.44434L190 12.6934L188.315 15.4795L181.594 11.1396C180.634 12.4721 179.471 13.5184 178.101 14.2744L178.094 14.2783C176.723 15.0343 175.266 15.4141 173.723 15.4141V12.1787C174.8 12.1787 175.835 11.8612 176.826 11.2227C177.813 10.5841 178.646 9.6938 179.322 8.54785C179.995 7.40173 180.43 6.08599 180.627 4.60156L183.931 5.14062ZM142.957 4.68848C143.989 4.68848 144.932 4.90215 145.732 5.33008C146.533 5.75806 147.155 6.36215 147.597 7.13867C148.039 7.91541 148.26 8.82373 148.26 9.85938C148.26 10.895 148.039 11.7999 147.597 12.5801C147.155 13.36 146.533 13.9641 145.732 14.3887C144.932 14.8132 144.006 15.0303 142.957 15.0303C141.908 15.0302 141.011 14.8166 140.217 14.3887C139.423 13.9606 138.804 13.3602 138.362 12.5801C137.92 11.7999 137.7 10.895 137.7 9.85938C137.7 8.82373 137.92 7.91886 138.362 7.13867C138.804 6.35858 139.423 5.75466 140.217 5.33008C141.011 4.90219 141.925 4.68852 142.957 4.68848ZM125.493 11.4131C124.924 11.4131 124.471 11.5198 124.133 11.7373C123.795 11.9548 123.626 12.2211 123.626 12.5352C123.626 12.8491 123.795 13.1118 124.133 13.3223C124.471 13.5328 124.924 13.6357 125.493 13.6357C126.063 13.6357 126.515 13.5328 126.854 13.3223C127.192 13.1118 127.36 12.8491 127.36 12.5352C127.36 12.221 127.192 11.9548 126.854 11.7373C126.515 11.5198 126.063 11.4131 125.493 11.4131ZM64.7451 13.6152H61.5107V10.6943H58.9941C58.6662 11.5953 58.0614 12.303 57.1846 12.8174C56.3078 13.3317 55.2484 13.5947 54.0059 13.5947C52.9738 13.5947 52.0553 13.4113 51.251 13.042C50.4501 12.6761 49.8286 12.1546 49.3867 11.4814C48.9449 10.8083 48.7236 10.0282 48.7236 9.14453C48.7237 8.26087 48.9449 7.48073 49.3867 6.80762C49.8286 6.13451 50.4501 5.61298 51.251 5.24707C52.0518 4.88125 52.9704 4.69531 54.0059 4.69531C55.2346 4.69537 56.284 4.9439 57.1504 5.4375C58.0202 5.93114 58.6245 6.62122 58.9697 7.50488H61.5107V4.67383H64.7451V13.6152ZM110.141 4.94043C110.141 5.95867 109.954 6.96302 109.578 7.9502L114.073 10.4463L112.589 12.918L108.139 10.3564C107.434 11.1815 106.588 11.8442 105.598 12.3447H105.602C104.611 12.8487 103.547 13.1288 102.408 13.1875V10.1973C103.71 10.0316 104.777 9.45508 105.602 8.46777C106.423 7.4805 106.851 6.23441 106.882 4.73633L110.141 4.94043ZM118.077 13.1182H114.818V4.66699H118.077V13.1182ZM171.251 13.0283H167.882V8.04004H156.507V4.87109H171.251V13.0283ZM142.954 7.54297C142.326 7.54297 141.822 7.7467 141.449 8.15039C141.073 8.55429 140.886 9.12406 140.886 9.85938C140.886 10.5945 141.076 11.1673 141.459 11.5781C141.842 11.9889 142.34 12.1963 142.954 12.1963C143.568 12.1962 144.086 11.9889 144.459 11.5781C144.832 11.1673 145.021 10.5946 145.021 9.85938C145.021 9.12406 144.835 8.55429 144.459 8.15039C144.083 7.74661 143.582 7.54301 142.954 7.54297ZM54.002 7.43555C53.3702 7.43555 52.8972 7.59172 52.5312 7.89551C52.1655 8.20273 51.9824 8.61701 51.9824 9.1416C51.9825 9.66618 52.1654 10.06 52.5312 10.3672C52.8972 10.6744 53.3876 10.8262 54.002 10.8262C54.6164 10.8262 55.1239 10.6773 55.4863 10.377C55.8453 10.0767 56.0253 9.66616 56.0254 9.1416C56.0254 8.61696 55.8452 8.20273 55.4863 7.89551C55.1273 7.58827 54.6337 7.43555 54.002 7.43555ZM127.157 5.83789H130.596V8.44434H119.918V5.83789H123.829V4.35352H127.157V5.83789ZM25.0283 4.8916L25.0215 4.90234L25.0234 4.88672L25.0283 4.8916Z" fill="white"/>
</svg>
