<svg width="20" height="20" viewBox="0 0 20 20" fill="none" xmlns="http://www.w3.org/2000/svg">
<path d="M10.2991 5.28179L14.3442 9.60008H3.60865C3.37543 9.60008 3.15536 9.69916 2.99579 9.86955C2.83674 10.0394 2.75 10.2664 2.75 10.5C2.75 10.7336 2.83674 10.9606 2.99579 11.1305L2.99579 11.1305C3.15537 11.3008 3.37543 11.3999 3.60865 11.3999H14.3442L10.2991 15.7182L10.299 15.7182C10.1398 15.8882 10.053 16.1155 10.053 16.3493C10.053 16.5831 10.1398 16.8103 10.299 16.9803C10.4587 17.1508 10.679 17.25 10.9124 17.25C11.1458 17.25 11.3661 17.1508 11.5258 16.9803L17.0034 11.1313C17.0826 11.047 17.1445 10.9478 17.1865 10.8396C17.2286 10.7315 17.25 10.6162 17.25 10.5C17.25 10.3838 17.2286 10.2685 17.1865 10.1604C17.1445 10.0522 17.0826 9.95301 17.0034 9.86874L11.5258 4.01971C11.3661 3.84916 11.1459 3.75 10.9124 3.75C10.679 3.75 10.4587 3.84916 10.299 4.01971C10.1398 4.1897 10.053 4.41695 10.053 4.65074C10.053 4.88453 10.1398 5.11178 10.299 5.28177L10.2991 5.28179Z" fill="white" stroke="white" stroke-width="0.5"/>
</svg>
